<?xml version="1.0" encoding="UTF-8" standalone="no"?>
<svg
   xmlns:dc="http://purl.org/dc/elements/1.1/"
   xmlns:cc="http://creativecommons.org/ns#"
   xmlns:rdf="http://www.w3.org/1999/02/22-rdf-syntax-ns#"
   xmlns:svg="http://www.w3.org/2000/svg"
   xmlns="http://www.w3.org/2000/svg"
   viewBox="0 0 620.00116 176"
   height="176"
   width="620.00116"
   xml:space="preserve"
   id="svg815"
   version="1.1"><metadata
   id="metadata821"><rdf:RDF><cc:Work
       rdf:about=""><dc:format>image/svg+xml</dc:format><dc:type
         rdf:resource="http://purl.org/dc/dcmitype/StillImage" /><dc:title></dc:title></cc:Work></rdf:RDF></metadata><defs
   id="defs819"><clipPath
   id="clipPath835"
   clipPathUnits="userSpaceOnUse"><path
     id="path833"
     d="M 0,898.583 H 651.973 V 0 H 0 Z" /></clipPath><clipPath
   id="clipPath847"
   clipPathUnits="userSpaceOnUse"><path
     id="path845"
     d="M 0,898.583 H 651.973 V 0 H 0 Z" /></clipPath><clipPath
   id="clipPath907"
   clipPathUnits="userSpaceOnUse"><path
     id="path905"
     d="M 0,898.583 H 651.973 V 0 H 0 Z" /></clipPath><clipPath
   id="clipPath919"
   clipPathUnits="userSpaceOnUse"><path
     id="path917"
     d="M 0,898.583 H 651.973 V 0 H 0 Z" /></clipPath>

</defs><text
   style="font-variant:normal;font-weight:normal;font-stretch:normal;font-size:22.36370277px;font-family:Arial;-inkscape-font-specification:ArialMT;writing-mode:lr-tb;fill:#231f20;fill-opacity:1;fill-rule:nonzero;stroke:none;stroke-width:1.49091351"
   id="text979"
   x="255.30685"
   y="101.85746" />


<flowRoot
   xml:space="preserve"
   id="flowRoot4790"
   style="font-style:normal;font-weight:normal;font-size:40px;line-height:1.25;font-family:sans-serif;letter-spacing:0px;word-spacing:0px;fill:#000000;fill-opacity:1;stroke:none"
   transform="translate(-1.3844333e-5,61.294231)"><flowRegion
     id="flowRegion4792"><rect
       id="rect4794"
       width="420.04352"
       height="222.70764"
       x="222.70764"
       y="-112.80596" /></flowRegion><flowPara
     id="flowPara4796" /></flowRoot><path
   d="M 9.999996,10.000018 H 239.66297 V 166.00002 H 9.999996 Z"
   style="fill:#ffffff;fill-opacity:1;fill-rule:nonzero;stroke:none;stroke-width:2.45584202"
   id="path827" /><path
   d="M 14.415585,14.275638 H 235.24492 V 161.49601 H 14.415585 Z"
   style="fill:#254aa5;fill-opacity:1;fill-rule:nonzero;stroke:none;stroke-width:2.45584202"
   id="path839" /><path
   id="path853"
   style="fill:#fff200;fill-opacity:1;fill-rule:nonzero;stroke:none;stroke-width:2.45584202"
   d="m 120.12487,46.353594 4.65873,-3.401341 4.66119,3.401341 -1.77312,-5.49863 4.73241,-3.401342 H 126.569 l -1.7854,-5.567394 -1.78539,5.572306 -5.83017,-0.0049 4.72995,3.401342 z" /><path
   id="path857"
   style="fill:#fff200;fill-opacity:1;fill-rule:nonzero;stroke:none;stroke-width:2.45584202"
   d="m 96.010689,52.832364 4.658731,-3.401341 4.65873,3.401341 -1.77066,-5.49863 4.72995,-3.401342 h -5.83508 l -1.78539,-5.572305 -1.785402,5.577217 -5.830169,-0.0049 4.729952,3.401342 z" /><path
   id="path861"
   style="fill:#fff200;fill-opacity:1;fill-rule:nonzero;stroke:none;stroke-width:2.45584202"
   d="m 83.025917,56.04435 -1.785397,5.577217 -5.830169,-0.0049 4.729952,3.401341 -1.773118,5.49863 4.658732,-3.401341 4.658732,3.401341 -1.773118,-5.49863 4.729952,-3.401341 h -5.830169 z" /><path
   id="path865"
   style="fill:#fff200;fill-opacity:1;fill-rule:nonzero;stroke:none;stroke-width:2.45584202"
   d="m 76.553297,91.199485 4.656277,3.401341 -1.770663,-5.501086 4.729952,-3.398885 h -5.830169 l -1.785397,-5.572306 -1.785397,5.584585 -5.832625,-0.01228 4.732408,3.398885 -1.773118,5.501086 z" /><path
   id="path869"
   style="fill:#fff200;fill-opacity:1;fill-rule:nonzero;stroke:none;stroke-width:2.45584202"
   d="m 84.811576,109.85702 -1.785397,-5.57231 -1.785397,5.57722 -5.83017,-0.005 4.729952,3.40134 -1.773118,5.49863 4.658733,-3.40625 4.658732,3.40625 -1.773118,-5.49863 4.729952,-3.40134 z" /><path
   id="path873"
   style="fill:#fff200;fill-opacity:1;fill-rule:nonzero;stroke:none;stroke-width:2.45584202"
   d="m 102.48946,127.5349 -1.7854,-5.56494 -1.782939,5.57231 -5.832625,-0.007 4.729952,3.40134 -1.770662,5.49863 4.658734,-3.40134 4.65628,3.40134 -1.76821,-5.49863 4.72995,-3.40134 z" /><path
   id="path877"
   style="fill:#fff200;fill-opacity:1;fill-rule:nonzero;stroke:none;stroke-width:2.45584202"
   d="m 126.57315,133.94073 -1.7854,-5.57231 -1.78294,5.57722 -5.83262,-0.005 4.72995,3.40134 -1.77066,5.49863 4.65873,-3.40134 4.65628,3.40134 -1.77312,-5.49863 4.73486,-3.40134 z" /><path
   id="path881"
   style="fill:#fff200;fill-opacity:1;fill-rule:nonzero;stroke:none;stroke-width:2.45584202"
   d="m 150.65686,127.5349 -1.78294,-5.56494 -1.78785,5.57231 -5.82772,-0.007 4.7275,3.40134 -1.77066,5.49863 4.65873,-3.40134 4.66119,3.40134 -1.77803,-5.49863 4.7324,-3.40134 z" /><path
   id="path885"
   style="fill:#fff200;fill-opacity:1;fill-rule:nonzero;stroke:none;stroke-width:2.45584202"
   d="m 168.3409,109.85702 -1.78785,-5.57231 -1.79031,5.57722 -5.82772,-0.005 4.73487,3.40134 -1.77803,5.49863 4.66119,-3.40625 4.65873,3.40625 -1.77557,-5.49863 4.7324,-3.40134 z" /><path
   id="path889"
   style="fill:#fff200;fill-opacity:1;fill-rule:nonzero;stroke:none;stroke-width:2.45584202"
   d="m 180.57443,85.633334 h -5.83508 l -1.78785,-5.572306 -1.78295,5.579674 -5.83262,-0.0074 4.73241,3.401341 -1.77066,5.498631 4.65382,-3.406253 4.66118,3.406253 -1.77066,-5.498631 z" /><path
   id="path893"
   style="fill:#fff200;fill-opacity:1;fill-rule:nonzero;stroke:none;stroke-width:2.45584202"
   d="m 161.89259,70.443457 4.65873,-3.401341 4.66119,3.401341 -1.77557,-5.49863 4.7324,-3.39643 h -5.82771 l -1.79031,-5.56985 -1.78785,5.577217 -5.82771,-0.0074 4.7324,3.39643 z" /><path
   id="path897"
   style="fill:#fff200;fill-opacity:1;fill-rule:nonzero;stroke:none;stroke-width:2.45584202"
   d="m 148.94146,38.366226 -1.78294,5.577217 -5.83263,-0.0098 4.72504,3.406253 -1.7682,5.49863 4.66364,-3.406252 4.65382,3.406252 -1.7682,-5.49863 4.7324,-3.406253 h -5.83999 z" /><path
   id="path1073"
   style="font-variant:normal;font-weight:bold;font-stretch:normal;font-size:medium;font-family:Arial;-inkscape-font-specification:Arial-BoldMT;writing-mode:lr-tb;fill:#231f20;fill-opacity:1;fill-rule:nonzero;stroke:none;stroke-width:1.42269337"
   d="M 256.50118,58.608109 V 34.16668 h 18.12267 v 4.134703 h -13.1877 v 5.418461 h 12.27073 v 4.118031 h -12.27073 v 6.652203 h 13.65452 v 4.118031 z" /><path
   id="path1075"
   style="font-variant:normal;font-weight:bold;font-stretch:normal;font-size:medium;font-family:Arial;-inkscape-font-specification:Arial-BoldMT;writing-mode:lr-tb;fill:#231f20;fill-opacity:1;fill-rule:nonzero;stroke:none;stroke-width:1.42269337"
   d="m 278.95093,34.16668 h 9.7699 q 2.90097,0 4.3181,0.250083 1.43381,0.233411 2.55085,1.000331 1.1337,0.766921 1.88395,2.05068 0.75025,1.267086 0.75025,2.850944 0,1.717235 -0.93364,3.151043 -0.91697,1.433809 -2.50083,2.150713 2.23407,0.650215 3.43447,2.217401 1.2004,1.567186 1.2004,3.684553 0,1.667219 -0.78359,3.251077 -0.76692,1.567186 -2.11737,2.517501 -1.33378,0.933642 -3.30109,1.150381 -1.23375,0.133377 -5.95198,0.166722 h -8.31942 z m 4.93497,4.068014 v 5.651872 h 3.2344 q 2.88429,0 3.58452,-0.08336 1.26709,-0.150049 1.984,-0.866954 0.73357,-0.733576 0.73357,-1.917301 0,-1.133709 -0.63354,-1.833941 -0.61687,-0.716904 -1.85061,-0.866954 -0.73358,-0.08336 -4.21807,-0.08336 z m 0,9.719886 v 6.535498 h 4.56818 q 2.66755,0 3.38445,-0.15005 1.10037,-0.200066 1.78393,-0.966987 0.70023,-0.783592 0.70023,-2.084023 0,-1.100365 -0.53351,-1.867285 -0.53351,-0.766921 -1.55051,-1.117037 -1.00034,-0.350116 -4.36812,-0.350116 z" /><path
   id="path1077"
   style="font-variant:normal;font-weight:bold;font-stretch:normal;font-size:medium;font-family:Arial;-inkscape-font-specification:Arial-BoldMT;writing-mode:lr-tb;fill:#231f20;fill-opacity:1;fill-rule:nonzero;stroke:none;stroke-width:1.42269337"
   d="M 303.2452,58.608109 V 34.16668 h 7.91929 q 4.50149,0 5.86861,0.366788 2.1007,0.550183 3.51784,2.400796 1.41713,1.83394 1.41713,4.751573 0,2.250746 -0.81694,3.784587 -0.81693,1.533841 -2.08402,2.417467 -1.25041,0.866954 -2.55084,1.150381 -1.76726,0.350116 -5.11837,0.350116 h -3.21773 v 9.219721 z m 4.93497,-20.306726 v 6.93563 h 2.7009 q 2.91763,0 3.90129,-0.38346 0.98366,-0.38346 1.53384,-1.200397 0.56685,-0.816938 0.56685,-1.90063 0,-1.333775 -0.78359,-2.200729 -0.78359,-0.866954 -1.98399,-1.083692 -0.88363,-0.166722 -3.55118,-0.166722 z" /><path
   id="path1079"
   style="font-variant:normal;font-weight:bold;font-stretch:normal;font-size:medium;font-family:Arial;-inkscape-font-specification:Arial-BoldMT;writing-mode:lr-tb;fill:#231f20;fill-opacity:1;fill-rule:nonzero;stroke:none;stroke-width:1.42269337"
   d="m 324.67789,46.537444 q 0,-3.73457 1.11703,-6.268743 0.83361,-1.867285 2.26742,-3.35111 1.45048,-1.483824 3.16772,-2.200728 2.28409,-0.966987 5.26841,-0.966987 5.40179,0 8.63619,3.351109 3.25108,3.35111 3.25108,9.319754 0,5.918627 -3.21773,9.269737 -3.21774,3.334437 -8.60285,3.334437 -5.45181,0 -8.66954,-3.317765 -3.21773,-3.334438 -3.21773,-9.169704 z m 5.08501,-0.166722 q 0,4.151375 1.91731,6.302087 1.9173,2.134041 4.86827,2.134041 2.95098,0 4.83494,-2.117368 1.90063,-2.13404 1.90063,-6.385449 0,-4.201391 -1.85061,-6.268742 -1.83395,-2.067352 -4.88496,-2.067352 -3.05101,0 -4.91829,2.100696 -1.86729,2.084024 -1.86729,6.302087 z" /><path
   id="path1081"
   style="font-variant:normal;font-weight:bold;font-stretch:normal;font-size:medium;font-family:Arial;-inkscape-font-specification:Arial-BoldMT;writing-mode:lr-tb;fill:#231f20;fill-opacity:1;fill-rule:nonzero;stroke:none;stroke-width:1.42269337"
   d="m 351.96802,34.16668 h 19.43977 v 24.441429 h -4.93497 v -20.34007 h -9.56983 v 20.34007 h -4.93497 z" /><path
   id="path1083"
   style="font-variant:normal;font-weight:bold;font-stretch:normal;font-size:medium;font-family:Arial;-inkscape-font-specification:Arial-BoldMT;writing-mode:lr-tb;fill:#231f20;fill-opacity:1;fill-rule:nonzero;stroke:none;stroke-width:1.42269337"
   d="M 376.10986,58.608109 V 34.16668 h 18.12267 v 4.134703 h -13.1877 v 5.418461 h 12.27073 v 4.118031 h -12.27073 v 6.652203 h 13.65452 v 4.118031 z" /><path
   id="path1085"
   style="font-variant:normal;font-weight:bold;font-stretch:normal;font-size:medium;font-family:Arial;-inkscape-font-specification:Arial-BoldMT;writing-mode:lr-tb;fill:#231f20;fill-opacity:1;fill-rule:nonzero;stroke:none;stroke-width:1.42269337"
   d="m 398.60962,34.16668 h 4.6182 V 50.438736 L 413.1311,34.16668 h 4.91829 V 58.608109 H 413.4312 V 42.652824 l -9.88661,15.955285 h -4.93497 z m 12.67086,-6.085348 h 2.28409 q -0.20006,2.267417 -1.60053,3.567848 -1.38379,1.283758 -3.60119,1.283758 -2.2174,0 -3.61786,-1.283758 -1.38379,-1.300431 -1.58386,-3.567848 h 2.28409 q 0.1167,1.183725 0.83361,1.800596 0.7169,0.600199 2.08402,0.600199 1.36712,0 2.08403,-0.600199 0.7169,-0.616871 0.8336,-1.800596 z" /><path
   id="path1087"
   style="font-variant:normal;font-weight:bold;font-stretch:normal;font-size:medium;font-family:Arial;-inkscape-font-specification:Arial-BoldMT;writing-mode:lr-tb;fill:#231f20;fill-opacity:1;fill-rule:nonzero;stroke:none;stroke-width:1.42269337"
   d="m 438.38997,49.621799 4.78492,1.517169 q -1.10036,4.001325 -3.66788,5.951971 -2.55085,1.933974 -6.48548,1.933974 -4.86828,0 -8.00265,-3.317765 -3.13437,-3.334438 -3.13437,-9.103015 0,-6.102021 3.15104,-9.469803 3.15104,-3.384454 8.28608,-3.384454 4.48482,0 7.28574,2.650878 1.66722,1.567185 2.50083,4.50149 l -4.88495,1.167054 q -0.43348,-1.90063 -1.81727,-3.000994 -1.36712,-1.100365 -3.33444,-1.100365 -2.71756,0 -4.41813,1.950646 -1.68389,1.950646 -1.68389,6.31876 0,4.634868 1.66722,6.602186 1.66722,1.967319 4.33477,1.967319 1.96732,0 3.38446,-1.250415 1.41713,-1.250414 2.034,-3.934636 z" /><path
   id="path1089"
   style="font-variant:normal;font-weight:bold;font-stretch:normal;font-size:medium;font-family:Arial;-inkscape-font-specification:Arial-BoldMT;writing-mode:lr-tb;fill:#231f20;fill-opacity:1;fill-rule:nonzero;stroke:none;stroke-width:1.42269337"
   d="m 447.14583,34.16668 h 4.93496 v 10.403446 q 1.65055,-0.166722 2.23408,-0.850282 0.58352,-0.683559 1.80059,-3.801259 1.53384,-3.967981 3.08436,-4.934967 1.53384,-0.966987 4.95164,-0.966987 0.16672,0 0.7169,-0.01667 v 3.65121 l -0.70023,-0.01667 q -1.51717,0 -2.2174,0.383461 -0.70023,0.366788 -1.13371,1.133709 -0.43348,0.76692 -1.28376,3.151043 -0.45015,1.267087 -0.98366,2.117368 -0.51684,0.850282 -1.85061,1.60053 1.65055,0.466822 2.71757,1.883958 1.08369,1.417136 2.36745,4.001325 l 3.33443,6.70222 h -5.80192 l -2.91763,-6.31876 q -0.0667,-0.133377 -0.28343,-0.516838 -0.0834,-0.133377 -0.61687,-1.150381 -0.95031,-1.800596 -1.56718,-2.250745 -0.6002,-0.450149 -1.85062,-0.466821 v 10.703545 h -4.93496 z" /><path
   id="path1091"
   style="font-variant:normal;font-weight:bold;font-stretch:normal;font-size:medium;font-family:Arial;-inkscape-font-specification:Arial-BoldMT;writing-mode:lr-tb;fill:#231f20;fill-opacity:1;fill-rule:nonzero;stroke:none;stroke-width:1.42269337"
   d="m 467.61591,34.16668 h 4.61819 v 16.272056 l 9.90328,-16.272056 h 4.9183 v 24.441429 h -4.6182 V 42.652824 l -9.8866,15.955285 h -4.93497 z" /><path
   id="path1093"
   style="font-variant:normal;font-weight:bold;font-stretch:normal;font-size:medium;font-family:Arial;-inkscape-font-specification:Arial-BoldMT;writing-mode:lr-tb;fill:#231f20;fill-opacity:1;fill-rule:nonzero;stroke:none;stroke-width:1.42269337"
   d="m 516.54708,49.621799 4.78491,1.517169 q -1.10036,4.001325 -3.66788,5.951971 -2.55084,1.933974 -6.48548,1.933974 -4.86828,0 -8.00265,-3.317765 -3.13437,-3.334438 -3.13437,-9.103015 0,-6.102021 3.15104,-9.469803 3.15105,-3.384454 8.28608,-3.384454 4.48482,0 7.28575,2.650878 1.66722,1.567185 2.50083,4.50149 l -4.88496,1.167054 q -0.43347,-1.90063 -1.81726,-3.000994 -1.36712,-1.100365 -3.33444,-1.100365 -2.71757,0 -4.41813,1.950646 -1.68389,1.950646 -1.68389,6.31876 0,4.634868 1.66722,6.602186 1.66722,1.967319 4.33477,1.967319 1.96731,0 3.38445,-1.250415 1.41714,-1.250414 2.03401,-3.934636 z" /><path
   id="path1095"
   style="font-variant:normal;font-weight:bold;font-stretch:normal;font-size:medium;font-family:Arial;-inkscape-font-specification:Arial-BoldMT;writing-mode:lr-tb;fill:#231f20;fill-opacity:1;fill-rule:nonzero;stroke:none;stroke-width:1.42269337"
   d="m 523.16883,34.16668 h 12.22071 v 9.769903 h 6.60219 q 2.61753,0 4.46815,0.700232 1.85061,0.683559 3.11769,2.500828 1.26709,1.800596 1.26709,4.201391 0,2.500829 -1.28376,4.268081 -1.28376,1.767252 -2.90096,2.384123 -1.6172,0.616871 -4.66821,0.616871 h -11.53716 v -20.34007 h -7.28574 z m 12.22071,20.34007 h 4.80159 q 2.25075,0 3.20106,-0.23341 0.96699,-0.233411 1.65055,-1.017004 0.70023,-0.800265 0.70023,-1.967318 0,-1.650547 -1.18372,-2.450812 -1.16706,-0.800265 -4.15138,-0.800265 h -5.01833 z" /><path
   id="path1097"
   style="font-variant:normal;font-weight:bold;font-stretch:normal;font-size:medium;font-family:Arial;-inkscape-font-specification:Arial-BoldMT;writing-mode:lr-tb;fill:#231f20;fill-opacity:1;fill-rule:nonzero;stroke:none;stroke-width:1.42269337"
   d="m 554.6005,34.16668 h 4.93497 v 10.20338 h 3.96798 q 0.43347,-4.518163 3.18439,-7.569174 2.75091,-3.05101 8.00265,-3.05101 5.05167,0 8.03599,3.267749 2.98432,3.267748 2.98432,9.336425 0,3.967981 -1.30043,6.785581 -1.30043,2.800927 -3.68455,4.351441 -2.36745,1.533841 -5.90196,1.533841 -3.60119,0 -5.73523,-1.133709 -2.11737,-1.133708 -3.7179,-3.667881 -1.58386,-2.534173 -1.86728,-5.751905 h -3.96798 v 10.136691 h -4.93497 z m 13.83792,12.254059 q 0,4.068014 1.6172,6.285415 1.6172,2.200729 4.5515,2.200729 3.01767,0 4.51817,-2.184057 1.51717,-2.200729 1.51717,-6.585514 0,-4.201392 -1.75058,-6.152038 -1.73391,-1.950646 -4.45148,-1.950646 -2.65088,0 -4.33477,1.98399 -1.66721,1.967319 -1.66721,6.402121 z" /><path
   id="path1099"
   style="font-variant:normal;font-weight:bold;font-stretch:normal;font-size:medium;font-family:Arial;-inkscape-font-specification:Arial-BoldMT;writing-mode:lr-tb;fill:#231f20;fill-opacity:1;fill-rule:nonzero;stroke:none;stroke-width:1.42269337"
   d="m 592.93001,40.835556 -4.80159,-1.117037 q 1.55051,-5.968643 8.81959,-5.968643 4.30142,0 6.48548,1.900629 2.20073,1.883957 2.20073,4.434802 0,1.75058 -1.00034,3.167716 -1.00033,1.400464 -3.00099,2.467484 2.43414,0.833609 3.65121,2.367451 1.21707,1.517169 1.21707,3.751242 0,3.217732 -2.36745,5.201723 -2.35078,1.98399 -7.05234,1.98399 -3.8346,0 -6.052,-1.267086 -2.2174,-1.283759 -3.33444,-4.784918 l 4.51816,-1.483825 q 0.70024,2.200729 1.85062,2.850944 1.16705,0.650216 2.86761,0.650216 2.33411,0 3.40113,-1.000332 1.06702,-1.017003 1.06702,-2.317434 0,-1.500497 -1.21707,-2.417467 -1.2004,-0.916971 -3.63454,-0.916971 h -1.11703 v -3.684553 h 0.56685 q 2.26742,0 3.46782,-1.017004 1.20039,-1.017003 1.20039,-2.700894 0,-1.333775 -0.98366,-2.250746 -0.96698,-0.91697 -2.78425,-0.91697 -3.10103,0 -3.96798,3.067683 z" /><path
   id="path1026"
   style="font-style:normal;font-variant:normal;font-weight:normal;font-stretch:normal;font-size:22.26666641px;line-height:0em;font-family:Arial;-inkscape-font-specification:Arial;letter-spacing:0px;word-spacing:0px;fill:#000000;fill-opacity:1;stroke:none;stroke-width:1.25581717"
   d="M 256.50118,101.7379 V 81.721521 h 14.47297 v 2.362098 h -11.82414 v 6.130529 h 11.07318 v 2.348443 h -11.07318 v 6.813217 h 12.28836 v 2.362092 z" /><path
   id="path1028"
   style="font-style:normal;font-variant:normal;font-weight:normal;font-stretch:normal;font-size:22.26666641px;line-height:0em;font-family:Arial;-inkscape-font-specification:Arial;letter-spacing:0px;word-spacing:0px;fill:#000000;fill-opacity:1;stroke:none;stroke-width:1.25581717"
   d="m 274.82451,87.237632 h 5.66629 q 2.08903,0 3.0994,0.354997 1.02403,0.341344 1.74768,1.269798 0.7373,0.928455 0.7373,2.225561 0,1.037684 -0.43692,1.815947 -0.42326,0.764609 -1.28344,1.283451 1.02403,0.341344 1.69305,1.283453 0.68269,0.928454 0.68269,2.211906 -0.13653,2.061714 -1.4746,3.058435 -1.33807,0.99672 -3.89132,0.99672 h -6.54013 z m 2.45767,6.103223 h 2.62152 q 1.57017,0 2.15729,-0.163845 0.58711,-0.163846 1.05133,-0.65538 0.46423,-0.505188 0.46423,-1.20153 0,-1.146913 -0.81922,-1.597487 -0.80557,-0.450573 -2.77172,-0.450573 h -2.70343 z m 0,6.376297 h 3.23593 q 2.08902,0 2.86729,-0.477881 0.77826,-0.491534 0.81922,-1.679411 0,-0.69634 -0.45057,-1.283451 -0.45058,-0.600764 -1.17422,-0.750956 -0.72365,-0.163845 -2.32114,-0.163845 h -2.97651 z" /><path
   id="path1030"
   style="font-style:normal;font-variant:normal;font-weight:normal;font-stretch:normal;font-size:22.26666641px;line-height:0em;font-family:Arial;-inkscape-font-specification:Arial;letter-spacing:0px;word-spacing:0px;fill:#000000;fill-opacity:1;stroke:none;stroke-width:1.25581717"
   d="M 289.66612,107.29498 V 87.237632 h 2.23921 v 1.884217 q 0.79192,-1.105953 1.78865,-1.652103 0.99671,-0.559803 2.4167,-0.559803 1.85692,0 3.27689,0.955761 1.42,0.955762 2.14365,2.703442 0.72365,1.734024 0.72365,3.809393 0,2.225559 -0.80557,4.014199 -0.79192,1.774992 -2.32114,2.730752 -1.51557,0.94211 -3.19497,0.94211 -1.22885,0 -2.21191,-0.51885 -0.96942,-0.51884 -1.59749,-1.31076 v 7.05899 z m 2.22556,-12.725288 q 0,2.799017 1.13326,4.137082 1.13326,1.338066 2.7444,1.338066 1.63845,0 2.79902,-1.379027 1.17422,-1.392681 1.17422,-4.300927 0,-2.771711 -1.14691,-4.150738 -1.13326,-1.379028 -2.7171,-1.379028 -1.57019,0 -2.78536,1.474604 -1.20153,1.46095 -1.20153,4.259968 z" /><path
   id="path1032"
   style="font-style:normal;font-variant:normal;font-weight:normal;font-stretch:normal;font-size:22.26666641px;line-height:0em;font-family:Arial;-inkscape-font-specification:Arial;letter-spacing:0px;word-spacing:0px;fill:#000000;fill-opacity:1;stroke:none;stroke-width:1.25581717"
   d="m 304.31658,94.487769 q 0,-4.027854 2.23921,-5.966685 1.87057,-1.611141 4.56035,-1.611141 2.99018,0 4.88804,1.966138 1.89787,1.952485 1.89787,5.406881 0,2.799017 -0.84653,4.410159 -0.83287,1.597489 -2.44401,2.484979 -1.59749,0.8875 -3.49537,0.8875 -3.04478,0 -4.92899,-1.95249 -1.87057,-1.952484 -1.87057,-5.625341 z m 2.52594,0 q 0,2.785363 1.21519,4.178044 1.21518,1.379027 3.05843,1.379027 1.8296,0 3.04479,-1.39268 1.21518,-1.392682 1.21518,-4.246313 0,-2.689787 -1.22884,-4.068815 -1.21518,-1.392683 -3.03113,-1.392683 -1.84325,0 -3.05843,1.379028 -1.21519,1.379028 -1.21519,4.164392 z" /><path
   id="path1034"
   style="font-style:normal;font-variant:normal;font-weight:normal;font-stretch:normal;font-size:22.26666641px;line-height:0em;font-family:Arial;-inkscape-font-specification:Arial;letter-spacing:0px;word-spacing:0px;fill:#000000;fill-opacity:1;stroke:none;stroke-width:1.25581717"
   d="m 320.8103,87.237632 h 11.44183 v 14.500278 h -2.45767 V 89.27204 h -6.52649 v 12.46587 h -2.45767 z" /><path
   id="path1036"
   style="font-style:normal;font-variant:normal;font-weight:normal;font-stretch:normal;font-size:22.26666641px;line-height:0em;font-family:Arial;-inkscape-font-specification:Arial;letter-spacing:0px;word-spacing:0px;fill:#000000;fill-opacity:1;stroke:none;stroke-width:1.25581717"
   d="m 345.85127,97.068326 2.53958,0.314036 q -0.60075,2.22556 -2.22555,3.454398 -1.62479,1.22884 -4.15073,1.22884 -3.18133,0 -5.05189,-1.95249 -1.85691,-1.966139 -1.85691,-5.502457 0,-3.659203 1.88421,-5.679957 1.88422,-2.020753 4.88804,-2.020753 2.90825,0 4.75151,1.979792 1.84325,1.979792 1.84325,5.570726 0,0.218461 -0.0137,0.65538 h -10.81377 q 0.13653,2.389405 1.35172,3.659202 1.21518,1.269797 3.03113,1.269797 1.35171,0 2.30748,-0.709993 0.95576,-0.709995 1.51557,-2.266521 z m -8.06937,-3.973238 h 8.09667 q -0.16385,-1.829602 -0.92845,-2.744403 -1.17423,-1.419989 -3.04478,-1.419989 -1.69307,0 -2.85363,1.133261 -1.14693,1.133261 -1.26981,3.031131 z" /><path
   id="path1038"
   style="font-style:normal;font-variant:normal;font-weight:normal;font-stretch:normal;font-size:22.26666641px;line-height:0em;font-family:Arial;-inkscape-font-specification:Arial;letter-spacing:0px;word-spacing:0px;fill:#000000;fill-opacity:1;stroke:none;stroke-width:1.25581717"
   d="m 351.49026,87.237632 h 2.45767 v 11.059531 l 6.81323,-11.059531 h 2.64882 V 101.7379 H 360.9523 V 90.746644 l -6.81321,10.991256 h -2.64883 z m 8.53359,-5.488804 h 1.67941 q -0.2048,1.706717 -1.25615,2.621519 -1.03768,0.9148 -2.7717,0.9148 -1.74768,0 -2.79901,-0.901147 -1.0377,-0.9148 -1.2425,-2.635172 h 1.67941 q 0.19116,0.928455 0.75095,1.392682 0.57347,0.450573 1.52922,0.450573 1.10596,0 1.66577,-0.436919 0.57346,-0.450573 0.7646,-1.406336 z" /><path
   id="path1040"
   style="font-style:normal;font-variant:normal;font-weight:normal;font-stretch:normal;font-size:22.26666641px;line-height:0em;font-family:Arial;-inkscape-font-specification:Arial;letter-spacing:0px;word-spacing:0px;fill:#000000;fill-opacity:1;stroke:none;stroke-width:1.25581717"
   d="m 376.57218,96.4266 2.41671,0.314036 q -0.39595,2.498635 -2.0344,3.918624 -1.6248,1.40634 -4.00054,1.40634 -2.97653,0 -4.79246,-1.93884 -1.8023,-1.952481 -1.8023,-5.584376 0,-2.348443 0.77826,-4.109776 0.77826,-1.761332 2.3621,-2.635173 1.59748,-0.887492 3.46805,-0.887492 2.36209,0 3.86401,1.201528 1.50191,1.187876 1.92517,3.386128 l -2.38941,0.368651 q -0.34133,-1.46095 -1.21518,-2.198252 -0.86018,-0.737302 -2.08901,-0.737302 -1.85692,0 -3.01748,1.338067 -1.16057,1.324412 -1.16057,4.205352 0,2.9219 1.11961,4.246314 1.11961,1.324411 2.92189,1.324411 1.44731,0 2.41672,-0.887492 0.96942,-0.887493 1.22883,-2.730748 z" /><path
   id="path1042"
   style="font-style:normal;font-variant:normal;font-weight:normal;font-stretch:normal;font-size:22.26666641px;line-height:0em;font-family:Arial;-inkscape-font-specification:Arial;letter-spacing:0px;word-spacing:0px;fill:#000000;fill-opacity:1;stroke:none;stroke-width:1.25581717"
   d="m 381.07792,87.237632 h 2.45767 V 93.5047 q 1.17423,0 1.63845,-0.450573 0.47788,-0.450574 1.39268,-2.621519 0.72365,-1.720371 1.17422,-2.266521 0.45058,-0.54615 1.03769,-0.737302 0.5871,-0.191153 1.88421,-0.191153 h 0.49154 v 2.034408 l -0.68269,-0.01365 q -0.96941,0 -1.24249,0.286728 -0.28673,0.300383 -0.87384,1.78864 -0.5598,1.419989 -1.02403,1.966139 -0.46422,0.54615 -1.43364,0.996723 1.58383,0.423266 3.11305,2.949208 l 2.68978,4.492082 h -2.70343 l -2.62152,-4.492082 q -0.80557,-1.35172 -1.40634,-1.774986 -0.60076,-0.43692 -1.43364,-0.43692 v 6.703988 h -2.45767 z" /><path
   id="path1044"
   style="font-style:normal;font-variant:normal;font-weight:normal;font-stretch:normal;font-size:22.26666641px;line-height:0em;font-family:Arial;-inkscape-font-specification:Arial;letter-spacing:0px;word-spacing:0px;fill:#000000;fill-opacity:1;stroke:none;stroke-width:1.25581717"
   d="m 393.32532,87.237632 h 2.45768 v 11.059531 l 6.81322,-11.059531 h 2.64882 v 14.500278 h -2.45767 V 90.746644 l -6.81321,10.991256 h -2.64884 z" /><path
   id="path1046"
   style="font-style:normal;font-variant:normal;font-weight:normal;font-stretch:normal;font-size:22.26666641px;line-height:0em;font-family:Arial;-inkscape-font-specification:Arial;letter-spacing:0px;word-spacing:0px;fill:#000000;fill-opacity:1;stroke:none;stroke-width:1.25581717"
   d="m 407.62079,87.237632 h 11.78317 v 2.034408 h -4.66957 v 12.46587 h -2.44402 V 89.27204 h -4.66958 z" /><path
   id="path1048"
   style="font-style:normal;font-variant:normal;font-weight:normal;font-stretch:normal;font-size:22.26666641px;line-height:0em;font-family:Arial;-inkscape-font-specification:Arial;letter-spacing:0px;word-spacing:0px;fill:#000000;fill-opacity:1;stroke:none;stroke-width:1.25581717"
   d="m 431.3783,97.068326 2.53961,0.314036 q -0.60077,2.22556 -2.22556,3.454398 -1.6248,1.22884 -4.15074,1.22884 -3.18133,0 -5.05189,-1.95249 -1.8569,-1.966139 -1.8569,-5.502457 0,-3.659203 1.88421,-5.679957 1.88422,-2.020753 4.88804,-2.020753 2.90825,0 4.7515,1.979792 1.84325,1.979792 1.84325,5.570726 0,0.218461 -0.0137,0.65538 h -10.81376 q 0.13654,2.389405 1.35172,3.659202 1.21518,1.269797 3.03113,1.269797 1.35172,0 2.30749,-0.709993 0.95575,-0.709995 1.51556,-2.266521 z m -8.06935,-3.973238 h 8.09667 q -0.16385,-1.829602 -0.92846,-2.744403 -1.17422,-1.419989 -3.04478,-1.419989 -1.69307,0 -2.85363,1.133261 -1.14692,1.133261 -1.2698,3.031131 z" /><path
   id="path1050"
   style="font-style:normal;font-variant:normal;font-weight:normal;font-stretch:normal;font-size:22.26666641px;line-height:0em;font-family:Arial;-inkscape-font-specification:Arial;letter-spacing:0px;word-spacing:0px;fill:#000000;fill-opacity:1;stroke:none;stroke-width:1.25581717"
   d="m 454.23465,96.4266 2.41671,0.314036 q -0.39596,2.498635 -2.0344,3.918624 -1.6248,1.40634 -4.00055,1.40634 -2.97652,0 -4.79247,-1.93884 -1.80228,-1.952481 -1.80228,-5.584376 0,-2.348443 0.77825,-4.109776 0.77827,-1.761332 2.36211,-2.635173 1.59748,-0.887492 3.46805,-0.887492 2.36209,0 3.864,1.201528 1.50192,1.187876 1.92518,3.386128 l -2.38941,0.368651 q -0.34134,-1.46095 -1.21518,-2.198252 -0.86018,-0.737302 -2.08902,-0.737302 -1.8569,0 -3.01748,1.338067 -1.16056,1.324412 -1.16056,4.205352 0,2.9219 1.11961,4.246314 1.1196,1.324411 2.92189,1.324411 1.4473,0 2.41671,-0.887492 0.96942,-0.887493 1.22884,-2.730748 z" /><path
   id="path1052"
   style="font-style:normal;font-variant:normal;font-weight:normal;font-stretch:normal;font-size:22.26666641px;line-height:0em;font-family:Arial;-inkscape-font-specification:Arial;letter-spacing:0px;word-spacing:0px;fill:#000000;fill-opacity:1;stroke:none;stroke-width:1.25581717"
   d="m 457.42964,87.237632 h 11.78318 v 2.034408 h -4.66958 v 12.46587 h -2.44402 V 89.27204 h -4.66958 z" /><path
   id="path1054"
   style="font-style:normal;font-variant:normal;font-weight:normal;font-stretch:normal;font-size:22.26666641px;line-height:0em;font-family:Arial;-inkscape-font-specification:Arial;letter-spacing:0px;word-spacing:0px;fill:#000000;fill-opacity:1;stroke:none;stroke-width:1.25581717"
   d="M 471.58857,107.29498 V 87.237632 h 2.23922 v 1.884217 q 0.7919,-1.105953 1.78863,-1.652103 0.99672,-0.559803 2.41671,-0.559803 1.85691,0 3.2769,0.955761 1.41999,0.955762 2.14363,2.703442 0.72366,1.734024 0.72366,3.809393 0,2.225559 -0.80557,4.014199 -0.79192,1.774992 -2.32114,2.730752 -1.51556,0.94211 -3.19498,0.94211 -1.22883,0 -2.21191,-0.51885 -0.96941,-0.51884 -1.59748,-1.31076 v 7.05899 z m 2.22555,-12.725288 q 0,2.799017 1.13327,4.137082 1.13326,1.338066 2.7444,1.338066 1.63845,0 2.79901,-1.379027 1.17423,-1.392681 1.17423,-4.300927 0,-2.771711 -1.14691,-4.150738 -1.13327,-1.379028 -2.7171,-1.379028 -1.57018,0 -2.78537,1.474604 -1.20153,1.46095 -1.20153,4.259968 z" /><path
   id="path1056"
   style="font-style:normal;font-variant:normal;font-weight:normal;font-stretch:normal;font-size:22.26666641px;line-height:0em;font-family:Arial;-inkscape-font-specification:Arial;letter-spacing:0px;word-spacing:0px;fill:#000000;fill-opacity:1;stroke:none;stroke-width:1.25581717"
   d="m 486.71691,107.32228 -0.27307,-2.30747 q 0.80557,0.21845 1.40633,0.21845 0.81923,0 1.31076,-0.27307 0.49154,-0.27307 0.80557,-0.76461 0.23212,-0.36865 0.75096,-1.8296 0.0683,-0.20481 0.21845,-0.60077 l -5.50245,-14.527578 h 2.64882 l 3.01748,8.397051 q 0.58712,1.597488 1.05134,3.358821 0.42326,-1.693064 1.01037,-3.304206 l 3.09941,-8.451666 h 2.45767 l -5.51612,14.746038 q -0.88748,2.3894 -1.37902,3.29055 -0.65537,1.21518 -1.50191,1.77499 -0.84653,0.57345 -2.02076,0.57345 -0.70999,0 -1.58383,-0.30038 z" /><path
   id="path1058"
   style="font-style:normal;font-variant:normal;font-weight:normal;font-stretch:normal;font-size:22.26666641px;line-height:0em;font-family:Arial;-inkscape-font-specification:Arial;letter-spacing:0px;word-spacing:0px;fill:#000000;fill-opacity:1;stroke:none;stroke-width:1.25581717"
   d="m 500.79391,87.237632 h 2.45767 V 93.5047 q 1.17423,0 1.63846,-0.450573 0.47787,-0.450574 1.39269,-2.621519 0.72363,-1.720371 1.17421,-2.266521 0.45057,-0.54615 1.03768,-0.737302 0.58712,-0.191153 1.88422,-0.191153 h 0.49154 v 2.034408 l -0.68269,-0.01365 q -0.96942,0 -1.24249,0.286728 -0.28673,0.300383 -0.87384,1.78864 -0.55981,1.419989 -1.02403,1.966139 -0.46423,0.54615 -1.43364,0.996723 1.58384,0.423266 3.11304,2.949208 l 2.6898,4.492082 h -2.70345 l -2.62152,-4.492082 q -0.80556,-1.35172 -1.40633,-1.774986 -0.60076,-0.43692 -1.43365,-0.43692 v 6.703988 h -2.45767 z" /><path
   id="path1060"
   style="font-style:normal;font-variant:normal;font-weight:normal;font-stretch:normal;font-size:22.26666641px;line-height:0em;font-family:Arial;-inkscape-font-specification:Arial;letter-spacing:0px;word-spacing:0px;fill:#000000;fill-opacity:1;stroke:none;stroke-width:1.25581717"
   d="m 512.0446,87.237632 h 11.78318 v 2.034408 h -4.66958 v 12.46587 h -2.44402 V 89.27204 h -4.66958 z" /><path
   id="path1062"
   style="font-style:normal;font-variant:normal;font-weight:normal;font-stretch:normal;font-size:22.26666641px;line-height:0em;font-family:Arial;-inkscape-font-specification:Arial;letter-spacing:0px;word-spacing:0px;fill:#000000;fill-opacity:1;stroke:none;stroke-width:1.25581717"
   d="m 526.42199,107.32228 -0.27308,-2.30747 q 0.80558,0.21845 1.40634,0.21845 0.81922,0 1.31076,-0.27307 0.49154,-0.27307 0.80557,-0.76461 0.23211,-0.36865 0.75095,-1.8296 0.0683,-0.20481 0.21846,-0.60077 l -5.50245,-14.527578 h 2.64882 l 3.01748,8.397051 q 0.58711,1.597488 1.05135,3.358821 0.42326,-1.693064 1.01036,-3.304206 l 3.09941,-8.451666 h 2.45767 l -5.51611,14.746038 q -0.8875,2.3894 -1.37903,3.29055 -0.65538,1.21518 -1.50192,1.77499 -0.84652,0.57345 -2.02074,0.57345 -0.70999,0 -1.58384,-0.30038 z" /><path
   id="path1064"
   style="font-style:normal;font-variant:normal;font-weight:normal;font-stretch:normal;font-size:22.26666641px;line-height:0em;font-family:Arial;-inkscape-font-specification:Arial;letter-spacing:0px;word-spacing:0px;fill:#000000;fill-opacity:1;stroke:none;stroke-width:1.25581717"
   d="M 540.18495,107.29498 V 87.237632 h 2.23923 v 1.884217 q 0.7919,-1.105953 1.78863,-1.652103 0.99672,-0.559803 2.41671,-0.559803 1.85691,0 3.2769,0.955761 1.41999,0.955762 2.14363,2.703442 0.72365,1.734024 0.72365,3.809393 0,2.225559 -0.80556,4.014199 -0.79192,1.774992 -2.32114,2.730752 -1.51556,0.94211 -3.19498,0.94211 -1.22883,0 -2.21191,-0.51885 -0.96941,-0.51884 -1.59748,-1.31076 v 7.05899 z m 2.22556,-12.725288 q 0,2.799017 1.13327,4.137082 1.13326,1.338066 2.7444,1.338066 1.63845,0 2.79901,-1.379027 1.17423,-1.392681 1.17423,-4.300927 0,-2.771711 -1.14692,-4.150738 -1.13326,-1.379028 -2.71709,-1.379028 -1.57018,0 -2.78537,1.474604 -1.20153,1.46095 -1.20153,4.259968 z" /><path
   id="path1066"
   style="font-style:normal;font-variant:normal;font-weight:normal;font-stretch:normal;font-size:22.26666641px;line-height:0em;font-family:Arial;-inkscape-font-specification:Arial;letter-spacing:0px;word-spacing:0px;fill:#000000;fill-opacity:1;stroke:none;stroke-width:1.25581717"
   d="m 555.76388,87.237632 h 2.45767 v 6.034954 h 6.81321 v -6.034954 h 2.45767 v 14.500278 h -2.45767 v -6.430917 h -6.81321 v 6.430917 h -2.45767 z" /><path
   id="path1068"
   style="font-style:normal;font-variant:normal;font-weight:normal;font-stretch:normal;font-size:22.26666641px;line-height:0em;font-family:Arial;-inkscape-font-specification:Arial;letter-spacing:0px;word-spacing:0px;fill:#000000;fill-opacity:1;stroke:none;stroke-width:1.25581717"
   d="m 571.20626,87.237632 h 2.45767 v 11.059531 l 6.81323,-11.059531 h 2.64882 v 14.500278 h -2.45767 V 90.746644 l -6.81323,10.991256 h -2.64882 z" /><path
   id="path1070"
   style="font-style:normal;font-variant:normal;font-weight:normal;font-stretch:normal;font-size:22.26666641px;line-height:0em;font-family:Arial;-inkscape-font-specification:Arial;letter-spacing:0px;word-spacing:0px;fill:#000000;fill-opacity:1;stroke:none;stroke-width:1.25581717"
   d="m 594.58147,87.237632 h 2.45767 v 11.059531 l 6.81322,-11.059531 h 2.64882 v 14.500278 h -2.45767 V 90.746644 l -6.81322,10.991256 h -2.64882 z" /><path
   id="path985"
   style="font-style:normal;font-variant:normal;font-weight:normal;font-stretch:normal;font-size:22.26666641px;line-height:1.25;font-family:Arial;-inkscape-font-specification:Arial;letter-spacing:0px;word-spacing:0px;fill:#000000;fill-opacity:1;stroke:none;stroke-width:1.25581717"
   d="m 256.50119,123.36772 h 2.45767 v 11.05953 l 6.81323,-11.05953 h 2.64882 v 14.50027 h -2.45768 v -10.99126 l -6.81322,10.99126 h -2.64882 z" /><path
   id="path987"
   style="font-style:normal;font-variant:normal;font-weight:normal;font-stretch:normal;font-size:22.26666641px;line-height:1.25;font-family:Arial;-inkscape-font-specification:Arial;letter-spacing:0px;word-spacing:0px;fill:#000000;fill-opacity:1;stroke:none;stroke-width:1.25581717"
   d="m 272.13472,123.36772 h 2.45767 v 6.03495 h 6.81323 v -6.03495 h 2.45767 v 14.50027 h -2.45767 v -6.43091 h -6.81323 v 6.43091 h -2.45767 z" /><path
   id="path989"
   style="font-style:normal;font-variant:normal;font-weight:normal;font-stretch:normal;font-size:22.26666641px;line-height:1.25;font-family:Arial;-inkscape-font-specification:Arial;letter-spacing:0px;word-spacing:0px;fill:#000000;fill-opacity:1;stroke:none;stroke-width:1.25581717"
   d="m 287.59077,123.36772 h 5.66629 q 2.08903,0 3.0994,0.355 1.02403,0.34134 1.74768,1.26979 0.73731,0.92845 0.73731,2.22556 0,1.03768 -0.43693,1.81595 -0.42326,0.7646 -1.28344,1.28346 1.02403,0.34134 1.69305,1.28344 0.68269,0.92845 0.68269,2.21191 -0.13653,2.06171 -1.47459,3.05844 -1.33808,0.99672 -3.89133,0.99672 h -6.54013 z m 2.45767,6.10322 h 2.62152 q 1.57017,0 2.15729,-0.16384 0.58711,-0.16385 1.05133,-0.65539 0.46423,-0.50519 0.46423,-1.20153 0,-1.14691 -0.81922,-1.59748 -0.80557,-0.45058 -2.77172,-0.45058 h -2.70343 z m 0,6.3763 h 3.23593 q 2.08902,0 2.86729,-0.47789 0.77826,-0.49152 0.81922,-1.6794 0,-0.69635 -0.45057,-1.28346 -0.45058,-0.60076 -1.17422,-0.75095 -0.72365,-0.16385 -2.32114,-0.16385 h -2.97651 z" /><path
   id="path991"
   style="font-style:normal;font-variant:normal;font-weight:normal;font-stretch:normal;font-size:22.26666641px;line-height:1.25;font-family:Arial;-inkscape-font-specification:Arial;letter-spacing:0px;word-spacing:0px;fill:#000000;fill-opacity:1;stroke:none;stroke-width:1.25581717"
   d="m 312.03095,133.19841 2.53961,0.31404 q -0.60078,2.22556 -2.22556,3.45439 -1.62481,1.22884 -4.15074,1.22884 -3.18133,0 -5.05189,-1.95249 -1.8569,-1.96613 -1.8569,-5.50245 0,-3.6592 1.88421,-5.67996 1.88422,-2.02075 4.88804,-2.02075 2.90825,0 4.7515,1.9798 1.84325,1.97978 1.84325,5.57071 0,0.21847 -0.0137,0.65539 h -10.81376 q 0.13654,2.3894 1.35172,3.6592 1.21518,1.26979 3.03113,1.26979 1.35172,0 2.30749,-0.70999 0.95575,-0.71 1.51556,-2.26652 z m -8.06935,-3.97324 h 8.09667 q -0.16385,-1.8296 -0.92847,-2.7444 -1.17421,-1.41999 -3.04477,-1.41999 -1.69307,0 -2.85364,1.13326 -1.14691,1.13326 -1.26979,3.03113 z" /><path
   id="path993"
   style="font-style:normal;font-variant:normal;font-weight:normal;font-stretch:normal;font-size:22.26666641px;line-height:1.25;font-family:Arial;-inkscape-font-specification:Arial;letter-spacing:0px;word-spacing:0px;fill:#000000;fill-opacity:1;stroke:none;stroke-width:1.25581717"
   d="m 327.13199,132.55669 2.41672,0.31403 q -0.39596,2.49863 -2.03441,3.91862 -1.6248,1.40634 -4.00054,1.40634 -2.97652,0 -4.79247,-1.93883 -1.80229,-1.95249 -1.80229,-5.58438 0,-2.34844 0.77826,-4.10977 0.77826,-1.76134 2.3621,-2.63518 1.59748,-0.88749 3.46805,-0.88749 2.36209,0 3.86401,1.20153 1.50191,1.18788 1.92518,3.38612 l -2.38941,0.36866 q -0.34134,-1.46096 -1.21519,-2.19826 -0.86018,-0.7373 -2.08901,-0.7373 -1.85692,0 -3.01748,1.33807 -1.16058,1.32441 -1.16058,4.20536 0,2.92189 1.11962,4.2463 1.11961,1.32441 2.92189,1.32441 1.44731,0 2.41672,-0.88748 0.96942,-0.8875 1.22883,-2.73075 z" /><path
   id="path995"
   style="font-style:normal;font-variant:normal;font-weight:normal;font-stretch:normal;font-size:22.26666641px;line-height:1.25;font-family:Arial;-inkscape-font-specification:Arial;letter-spacing:0px;word-spacing:0px;fill:#000000;fill-opacity:1;stroke:none;stroke-width:1.25581717"
   d="m 330.32697,123.36772 h 11.78318 v 2.0344 h -4.66958 v 12.46587 h -2.44402 v -12.46587 h -4.66958 z" /><path
   id="path997"
   style="font-style:normal;font-variant:normal;font-weight:normal;font-stretch:normal;font-size:22.26666641px;line-height:1.25;font-family:Arial;-inkscape-font-specification:Arial;letter-spacing:0px;word-spacing:0px;fill:#000000;fill-opacity:1;stroke:none;stroke-width:1.25581717"
   d="m 344.4859,123.36772 h 2.45768 v 11.05953 l 6.81322,-11.05953 h 2.64882 v 14.50027 h -2.45767 v -10.99126 l -6.81321,10.99126 h -2.64884 z" /><path
   id="path999"
   style="font-style:normal;font-variant:normal;font-weight:normal;font-stretch:normal;font-size:22.26666641px;line-height:1.25;font-family:Arial;-inkscape-font-specification:Arial;letter-spacing:0px;word-spacing:0px;fill:#000000;fill-opacity:1;stroke:none;stroke-width:1.25581717"
   d="m 360.14675,123.36772 h 2.45767 v 12.47952 h 6.79956 v -12.47952 h 2.45767 v 12.47952 h 1.58384 v 6.13053 h -2.02075 v -4.10978 h -11.27799 z" /><path
   id="path1001"
   style="font-style:normal;font-variant:normal;font-weight:normal;font-stretch:normal;font-size:22.26666641px;line-height:1.25;font-family:Arial;-inkscape-font-specification:Arial;letter-spacing:0px;word-spacing:0px;fill:#000000;fill-opacity:1;stroke:none;stroke-width:1.25581717"
   d="m 376.10797,123.36772 h 2.45767 v 11.05953 l 6.81321,-11.05953 h 2.64883 v 14.50027 h -2.45767 v -10.99126 l -6.81322,10.99126 h -2.64882 z" /><path
   id="path1003"
   style="font-style:normal;font-variant:normal;font-weight:normal;font-stretch:normal;font-size:22.26666641px;line-height:1.25;font-family:Arial;-inkscape-font-specification:Arial;letter-spacing:0px;word-spacing:0px;fill:#000000;fill-opacity:1;stroke:none;stroke-width:1.25581717"
   d="m 390.81305,130.61786 q 0,-4.02786 2.23921,-5.96669 1.87056,-1.61114 4.56035,-1.61114 2.99016,0 4.88804,1.96613 1.89787,1.9525 1.89787,5.40689 0,2.79901 -0.84654,4.41016 -0.83287,1.59749 -2.44402,2.48498 -1.59749,0.88749 -3.49535,0.88749 -3.04479,0 -4.92901,-1.95249 -1.87055,-1.95248 -1.87055,-5.62533 z m 2.52594,0 q 0,2.78536 1.21518,4.17804 1.21519,1.37902 3.05844,1.37902 1.8296,0 3.04478,-1.39267 1.21519,-1.39269 1.21519,-4.24632 0,-2.68979 -1.22884,-4.06881 -1.21518,-1.39268 -3.03113,-1.39268 -1.84325,0 -3.05844,1.37903 -1.21518,1.37902 -1.21518,4.16439 z" /><path
   id="path1005"
   style="font-style:normal;font-variant:normal;font-weight:normal;font-stretch:normal;font-size:22.26666641px;line-height:1.25;font-family:Arial;-inkscape-font-specification:Arial;letter-spacing:0px;word-spacing:0px;fill:#000000;fill-opacity:1;stroke:none;stroke-width:1.25581717"
   d="m 407.30676,123.36772 h 2.45768 v 6.03495 h 6.81322 v -6.03495 h 2.45767 v 14.50027 h -2.45767 v -6.43091 h -6.81322 v 6.43091 h -2.45768 z" /><path
   id="path1007"
   style="font-style:normal;font-variant:normal;font-weight:normal;font-stretch:normal;font-size:22.26666641px;line-height:1.25;font-family:Arial;-inkscape-font-specification:Arial;letter-spacing:0px;word-spacing:0px;fill:#000000;fill-opacity:1;stroke:none;stroke-width:1.25581717"
   d="m 422.76281,123.36772 h 2.45767 v 6.03495 h 6.81321 v -6.03495 h 2.45767 v 14.50027 h -2.45767 v -6.43091 h -6.81321 v 6.43091 h -2.45767 z" /><path
   id="path1009"
   style="font-style:normal;font-variant:normal;font-weight:normal;font-stretch:normal;font-size:22.26666641px;line-height:1.25;font-family:Arial;-inkscape-font-specification:Arial;letter-spacing:0px;word-spacing:0px;fill:#000000;fill-opacity:1;stroke:none;stroke-width:1.25581717"
   d="m 438.20519,123.36772 h 2.45767 v 11.05953 l 6.81322,-11.05953 h 2.64882 v 14.50027 h -2.45767 v -10.99126 l -6.81322,10.99126 h -2.64882 z" /><path
   id="path1011"
   style="font-style:normal;font-variant:normal;font-weight:normal;font-stretch:normal;font-size:22.26666641px;line-height:1.25;font-family:Arial;-inkscape-font-specification:Arial;letter-spacing:0px;word-spacing:0px;fill:#000000;fill-opacity:1;stroke:none;stroke-width:1.25581717"
   d="m 470.0184,117.85161 h 2.45768 v 6.92244 q 0.76461,-0.87384 1.67941,-1.29711 0.9148,-0.43691 1.96614,-0.43691 2.58055,0 4.08247,2.15729 1.51556,2.14363 1.51556,5.40689 0,3.39977 -1.62479,5.50245 -1.6248,2.08902 -4.04151,2.08902 -0.79192,0 -1.61114,-0.24577 -0.81923,-0.24577 -1.96614,-1.33806 v 6.81322 h -2.45768 v -6.81322 q -0.7373,0.79192 -1.63845,1.18787 -0.88748,0.39596 -1.92516,0.39596 -2.28018,0 -3.9869,-1.99344 -1.70672,-2.0071 -1.70672,-5.73458 0,-3.15401 1.54288,-5.284 1.54287,-2.14363 4.15074,-2.14363 1.09229,0 1.97978,0.43691 0.8875,0.42327 1.58383,1.29711 z m 2.44403,12.82086 q 0,3.27689 0.90115,4.41016 0.90114,1.11961 2.25286,1.11961 1.50192,0 2.55325,-1.37903 1.06499,-1.39269 1.06499,-4.31458 0,-2.75807 -0.98306,-4.10978 -0.96942,-1.35172 -2.49864,-1.35172 -1.63845,0 -2.47133,1.40634 -0.81922,1.40632 -0.81922,4.219 z m -9.20262,-0.27307 q 0,3.07209 1.02403,4.42381 1.03768,1.35171 2.5669,1.35171 1.59749,0 2.3894,-1.33806 0.79192,-1.35172 0.79192,-4.04151 0,-2.86728 -0.83287,-4.30093 -0.83289,-1.43364 -2.51229,-1.43364 -1.51557,0 -2.47134,1.40634 -0.95575,1.39267 -0.95575,3.93228 z" /><path
   id="path1013"
   style="font-style:normal;font-variant:normal;font-weight:normal;font-stretch:normal;font-size:22.26666641px;line-height:1.25;font-family:Arial;-inkscape-font-specification:Arial;letter-spacing:0px;word-spacing:0px;fill:#000000;fill-opacity:1;stroke:none;stroke-width:1.25581717"
   d="m 483.65849,130.61786 q 0,-4.02786 2.23922,-5.96669 1.87055,-1.61114 4.56035,-1.61114 2.99016,0 4.88803,1.96613 1.89788,1.9525 1.89788,5.40689 0,2.79901 -0.84654,4.41016 -0.83288,1.59749 -2.44402,2.48498 -1.59748,0.88749 -3.49535,0.88749 -3.04479,0 -4.92901,-1.95249 -1.87056,-1.95248 -1.87056,-5.62533 z m 2.52595,0 q 0,2.78536 1.21518,4.17804 1.21518,1.37902 3.05844,1.37902 1.8296,0 3.04478,-1.39267 1.21518,-1.39269 1.21518,-4.24632 0,-2.68979 -1.22883,-4.06881 -1.21519,-1.39268 -3.03113,-1.39268 -1.84326,0 -3.05844,1.37903 -1.21518,1.37902 -1.21518,4.16439 z" /><path
   id="path1015"
   style="font-style:normal;font-variant:normal;font-weight:normal;font-stretch:normal;font-size:22.26666641px;line-height:1.25;font-family:Arial;-inkscape-font-specification:Arial;letter-spacing:0px;word-spacing:0px;fill:#000000;fill-opacity:1;stroke:none;stroke-width:1.25581717"
   d="m 500.15222,123.36772 h 2.45767 v 6.03495 h 6.81321 v -6.03495 h 2.45767 v 14.50027 h -2.45767 v -6.43091 h -6.81321 v 6.43091 h -2.45767 z" /><path
   id="path1017"
   style="font-style:normal;font-variant:normal;font-weight:normal;font-stretch:normal;font-size:22.26666641px;line-height:1.25;font-family:Arial;-inkscape-font-specification:Arial;letter-spacing:0px;word-spacing:0px;fill:#000000;fill-opacity:1;stroke:none;stroke-width:1.25581717"
   d="m 517.53342,123.36772 h 10.10376 v 12.47952 h 1.57017 v 6.13053 h -2.02074 v -4.10978 h -11.41453 v 4.10978 h -2.02076 v -6.13053 h 1.29711 q 2.5942,-3.52266 2.48499,-12.47952 z m 2.04804,2.0344 q -0.27306,7.05899 -2.18459,10.44512 h 7.79629 v -10.44512 z" /><path
   id="path1019"
   style="font-style:normal;font-variant:normal;font-weight:normal;font-stretch:normal;font-size:22.26666641px;line-height:1.25;font-family:Arial;-inkscape-font-specification:Arial;letter-spacing:0px;word-spacing:0px;fill:#000000;fill-opacity:1;stroke:none;stroke-width:1.25581717"
   d="m 531.00965,130.61786 q 0,-4.02786 2.23922,-5.96669 1.87056,-1.61114 4.56035,-1.61114 2.99017,0 4.88803,1.96613 1.89788,1.9525 1.89788,5.40689 0,2.79901 -0.84653,4.41016 -0.83288,1.59749 -2.44402,2.48498 -1.59749,0.88749 -3.49536,0.88749 -3.04479,0 -4.929,-1.95249 -1.87057,-1.95248 -1.87057,-5.62533 z m 2.52595,0 q 0,2.78536 1.21518,4.17804 1.21518,1.37902 3.05844,1.37902 1.8296,0 3.04478,-1.39267 1.21518,-1.39269 1.21518,-4.24632 0,-2.68979 -1.22883,-4.06881 -1.21519,-1.39268 -3.03113,-1.39268 -1.84326,0 -3.05844,1.37903 -1.21518,1.37902 -1.21518,4.16439 z" /><path
   id="path1021"
   style="font-style:normal;font-variant:normal;font-weight:normal;font-stretch:normal;font-size:22.26666641px;line-height:1.25;font-family:Arial;-inkscape-font-specification:Arial;letter-spacing:0px;word-spacing:0px;fill:#000000;fill-opacity:1;stroke:none;stroke-width:1.25581717"
   d="m 547.50338,123.36772 h 5.6663 q 2.08902,0 3.09939,0.355 1.02403,0.34134 1.74768,1.26979 0.73731,0.92845 0.73731,2.22556 0,1.03768 -0.43693,1.81595 -0.42326,0.7646 -1.28344,1.28346 1.02403,0.34134 1.69307,1.28344 0.68268,0.92845 0.68268,2.21191 -0.13654,2.06171 -1.4746,3.05844 -1.33808,0.99672 -3.89133,0.99672 h -6.54013 z m 2.45767,6.10322 h 2.62152 q 1.57017,0 2.15729,-0.16384 0.58711,-0.16385 1.05133,-0.65539 0.46423,-0.50519 0.46423,-1.20153 0,-1.14691 -0.81922,-1.59748 -0.80557,-0.45058 -2.77171,-0.45058 h -2.70344 z m 0,6.3763 h 3.23594 q 2.08901,0 2.86728,-0.47789 0.77827,-0.49152 0.81922,-1.6794 0,-0.69635 -0.45057,-1.28346 -0.45058,-0.60076 -1.17422,-0.75095 -0.72365,-0.16385 -2.32114,-0.16385 h -2.97651 z" /><path
   id="path1023"
   style="font-style:normal;font-variant:normal;font-weight:normal;font-stretch:normal;font-size:22.26666641px;line-height:1.25;font-family:Arial;-inkscape-font-specification:Arial;letter-spacing:0px;word-spacing:0px;fill:#000000;fill-opacity:1;stroke:none;stroke-width:1.25581717"
   d="m 571.94358,133.19841 2.5396,0.31404 q -0.60077,2.22556 -2.22556,3.45439 -1.6248,1.22884 -4.15074,1.22884 -3.18132,0 -5.05189,-1.95249 -1.8569,-1.96613 -1.8569,-5.50245 0,-3.6592 1.88422,-5.67996 1.88421,-2.02075 4.88804,-2.02075 2.90824,0 4.7515,1.9798 1.84325,1.97978 1.84325,5.57071 0,0.21847 -0.0137,0.65539 h -10.81377 q 0.13655,2.3894 1.35173,3.6592 1.21517,1.26979 3.03112,1.26979 1.35173,0 2.30749,-0.70999 0.95575,-0.71 1.51556,-2.26652 z m -8.06936,-3.97324 h 8.09667 q -0.16384,-1.8296 -0.92846,-2.7444 -1.17422,-1.41999 -3.04478,-1.41999 -1.69307,0 -2.85363,1.13326 -1.14691,1.13326 -1.2698,3.03113 z" />
</svg>