<?xml version="1.0" encoding="UTF-8" standalone="no"?>

<svg

   xmlns:dc="http://purl.org/dc/elements/1.1/"

   xmlns:cc="http://creativecommons.org/ns#"

   xmlns:rdf="http://www.w3.org/1999/02/22-rdf-syntax-ns#"

   xmlns:svg="http://www.w3.org/2000/svg"

   xmlns="http://www.w3.org/2000/svg"

   id="svg4619"

   version="1.1"

   viewBox="0 0 127 46.566668"

   height="176"

   width="482">

  <defs

     id="defs4613">

    <linearGradient

       id="linearGradient800"

       spreadMethod="pad"

       gradientTransform="matrix(32.87516,33.06722,-33.06602,32.87396,414.4941,387.0431)"

       gradientUnits="userSpaceOnUse"

       y2="0"

       x2="1"

       y1="0"

       x1="0">

      <stop

         id="stop790"

         offset="0"

         style="stop-opacity:1;stop-color:#1f3e8c" />

      <stop

         id="stop792"

         offset="0.14"

         style="stop-opacity:1;stop-color:#254aa5" />

      <stop

         id="stop794"

         offset="0.41"

         style="stop-opacity:1;stop-color:#1d5eb3" />

      <stop

         id="stop796"

         offset="0.86"

         style="stop-opacity:1;stop-color:#254aa5" />

      <stop

         id="stop798"

         offset="1"

         style="stop-opacity:1;stop-color:#1d3c85" />

    </linearGradient>

    <linearGradient

       id="linearGradient776"

       spreadMethod="pad"

       gradientTransform="matrix(0,39.43871,-8.36674,0,400.972,403.4095)"

       gradientUnits="userSpaceOnUse"

       y2="0"

       x2="1"

       y1="0"

       x1="0">

      <stop

         id="stop764"

         offset="0"

         style="stop-opacity:1;stop-color:#deddde" />

      <stop

         id="stop766"

         offset="0.31"

         style="stop-opacity:1;stop-color:#ededed" />

      <stop

         id="stop768"

         offset="0.54"

         style="stop-opacity:1;stop-color:#ffffff" />

      <stop

         id="stop770"

         offset="0.72"

         style="stop-opacity:1;stop-color:#ffffff" />

      <stop

         id="stop772"

         offset="0.99"

         style="stop-opacity:1;stop-color:#deddde" />

      <stop

         id="stop774"

         offset="1"

         style="stop-opacity:1;stop-color:#d3d2d2" />

    </linearGradient>

    <linearGradient

       id="linearGradient750"

       spreadMethod="pad"

       gradientTransform="matrix(1.01178,-20.35881,22.07704,1.09717,413.8092,422.4132)"

       gradientUnits="userSpaceOnUse"

       y2="0"

       x2="0.98000002"

       y1="0"

       x1="0.02">

      <stop

         id="stop742"

         offset="0"

         style="stop-opacity:1;stop-color:#ed1c24" />

      <stop

         id="stop744"

         offset="0.83"

         style="stop-opacity:1;stop-color:#ed1c24" />

      <stop

         id="stop746"

         offset="0.96"

         style="stop-opacity:1;stop-color:#b4141a" />

      <stop

         id="stop748"

         offset="1"

         style="stop-opacity:1;stop-color:#b4141a" />

    </linearGradient>

    <linearGradient

       id="linearGradient728"

       spreadMethod="pad"

       gradientTransform="matrix(1.03626,-20.85143,12.40073,0.61628,403.1901,442.9528)"

       gradientUnits="userSpaceOnUse"

       y2="0"

       x2="0.99000001"

       y1="0"

       x1="0.0099999998">

      <stop

         id="stop718"

         offset="0"

         style="stop-opacity:1;stop-color:#d71920" />

      <stop

         id="stop720"

         offset="0.06"

         style="stop-opacity:1;stop-color:#d71920" />

      <stop

         id="stop722"

         offset="0.11"

         style="stop-opacity:1;stop-color:#ed1c24" />

      <stop

         id="stop724"

         offset="0.99"

         style="stop-opacity:1;stop-color:#ed1c24" />

      <stop

         id="stop726"

         offset="1"

         style="stop-opacity:1;stop-color:#b4141a" />

    </linearGradient>

    <linearGradient

       id="linearGradient704"

       spreadMethod="pad"

       gradientTransform="matrix(43.32247,-18.56655,13.44276,31.36682,378.3892,405.2707)"

       gradientUnits="userSpaceOnUse"

       y2="0"

       x2="1"

       y1="0"

       x1="0">

      <stop

         id="stop694"

         offset="0"

         style="stop-opacity:1;stop-color:#fcd205" />

      <stop

         id="stop696"

         offset="0.13"

         style="stop-opacity:1;stop-color:#fcd205" />

      <stop

         id="stop698"

         offset="0.46"

         style="stop-opacity:1;stop-color:#fff200" />

      <stop

         id="stop700"

         offset="0.88"

         style="stop-opacity:1;stop-color:#fff200" />

      <stop

         id="stop702"

         offset="1"

         style="stop-opacity:1;stop-color:#fcd205" />

    </linearGradient>

    <linearGradient

       id="linearGradient680"

       spreadMethod="pad"

       gradientTransform="matrix(92.32299,0,0,18.82857,385.1093,424.0196)"

       gradientUnits="userSpaceOnUse"

       y2="0"

       x2="1"

       y1="0"

       x1="0">

      <stop

         id="stop668"

         offset="0"

         style="stop-opacity:1;stop-color:#00813c" />

      <stop

         id="stop670"

         offset="0.01"

         style="stop-opacity:1;stop-color:#00813c" />

      <stop

         id="stop672"

         offset="0.11"

         style="stop-opacity:1;stop-color:#00a650" />

      <stop

         id="stop674"

         offset="0.88"

         style="stop-opacity:1;stop-color:#00a650" />

      <stop

         id="stop676"

         offset="0.97"

         style="stop-opacity:1;stop-color:#009044" />

      <stop

         id="stop678"

         offset="1"

         style="stop-opacity:1;stop-color:#009044" />

    </linearGradient>

    <linearGradient

       id="linearGradient3468"

       spreadMethod="pad"

       gradientTransform="matrix(34.17182,34.37146,-34.36985,34.17022,95.4689,621.6296)"

       gradientUnits="userSpaceOnUse"

       y2="0"

       x2="1"

       y1="0"

       x1="0">

      <stop

         id="stop3458"

         offset="0"

         style="stop-opacity:1;stop-color:#1f3e8c" />

      <stop

         id="stop3460"

         offset="0.14"

         style="stop-opacity:1;stop-color:#254aa5" />

      <stop

         id="stop3462"

         offset="0.41"

         style="stop-opacity:1;stop-color:#1d5eb3" />

      <stop

         id="stop3464"

         offset="0.86"

         style="stop-opacity:1;stop-color:#254aa5" />

      <stop

         id="stop3466"

         offset="1"

         style="stop-opacity:1;stop-color:#1d3c85" />

    </linearGradient>

    <linearGradient

       id="linearGradient3444"

       spreadMethod="pad"

       gradientTransform="matrix(0,40.99351,-8.69726,0,81.4141,638.6417)"

       gradientUnits="userSpaceOnUse"

       y2="0"

       x2="1"

       y1="0"

       x1="0">

      <stop

         id="stop3432"

         offset="0"

         style="stop-opacity:1;stop-color:#deddde" />

      <stop

         id="stop3434"

         offset="0.31"

         style="stop-opacity:1;stop-color:#ededed" />

      <stop

         id="stop3436"

         offset="0.54"

         style="stop-opacity:1;stop-color:#ffffff" />

      <stop

         id="stop3438"

         offset="0.72"

         style="stop-opacity:1;stop-color:#ffffff" />

      <stop

         id="stop3440"

         offset="0.99"

         style="stop-opacity:1;stop-color:#deddde" />

      <stop

         id="stop3442"

         offset="1"

         style="stop-opacity:1;stop-color:#d3d2d2" />

    </linearGradient>

    <linearGradient

       id="linearGradient3418"

       spreadMethod="pad"

       gradientTransform="matrix(1.05168,-21.16173,22.9479,1.14045,94.7571,658.3944)"

       gradientUnits="userSpaceOnUse"

       y2="0"

       x2="0.98000002"

       y1="0"

       x1="0.02">

      <stop

         id="stop3410"

         offset="0"

         style="stop-opacity:1;stop-color:#ed1c24" />

      <stop

         id="stop3412"

         offset="0.83"

         style="stop-opacity:1;stop-color:#ed1c24" />

      <stop

         id="stop3414"

         offset="0.96"

         style="stop-opacity:1;stop-color:#b4141a" />

      <stop

         id="stop3416"

         offset="1"

         style="stop-opacity:1;stop-color:#b4141a" />

    </linearGradient>

    <linearGradient

       id="linearGradient3396"

       spreadMethod="pad"

       gradientTransform="matrix(1.07713,-21.67388,12.88967,0.64058,83.8661,679.1579)"

       gradientUnits="userSpaceOnUse"

       y2="0"

       x2="0.99000001"

       y1="0"

       x1="0.0099999998">

      <stop

         id="stop3386"

         offset="0"

         style="stop-opacity:1;stop-color:#d71920" />

      <stop

         id="stop3388"

         offset="0.06"

         style="stop-opacity:1;stop-color:#d71920" />

      <stop

         id="stop3390"

         offset="0.11"

         style="stop-opacity:1;stop-color:#ed1c24" />

      <stop

         id="stop3392"

         offset="0.99"

         style="stop-opacity:1;stop-color:#ed1c24" />

      <stop

         id="stop3394"

         offset="1"

         style="stop-opacity:1;stop-color:#b4141a" />

    </linearGradient>

    <linearGradient

       id="linearGradient3372"

       spreadMethod="pad"

       gradientTransform="matrix(45.03061,-19.2986,13.97282,32.60363,57.9407,640.5758)"

       gradientUnits="userSpaceOnUse"

       y2="0"

       x2="1"

       y1="0"

       x1="0">

      <stop

         id="stop3362"

         offset="0"

         style="stop-opacity:1;stop-color:#fcd205" />

      <stop

         id="stop3364"

         offset="0.13"

         style="stop-opacity:1;stop-color:#fcd205" />

      <stop

         id="stop3366"

         offset="0.46"

         style="stop-opacity:1;stop-color:#fff200" />

      <stop

         id="stop3368"

         offset="0.88"

         style="stop-opacity:1;stop-color:#fff200" />

      <stop

         id="stop3370"

         offset="1"

         style="stop-opacity:1;stop-color:#fcd205" />

    </linearGradient>

    <linearGradient

       id="linearGradient3348"

       spreadMethod="pad"

       gradientTransform="matrix(95.96353,0,0,19.57068,64.9256,660.0645)"

       gradientUnits="userSpaceOnUse"

       y2="0"

       x2="1"

       y1="0"

       x1="0">

      <stop

         id="stop3336"

         offset="0"

         style="stop-opacity:1;stop-color:#00813c" />

      <stop

         id="stop3338"

         offset="0.01"

         style="stop-opacity:1;stop-color:#00813c" />

      <stop

         id="stop3340"

         offset="0.11"

         style="stop-opacity:1;stop-color:#00a650" />

      <stop

         id="stop3342"

         offset="0.88"

         style="stop-opacity:1;stop-color:#00a650" />

      <stop

         id="stop3344"

         offset="0.97"

         style="stop-opacity:1;stop-color:#009044" />

      <stop

         id="stop3346"

         offset="1"

         style="stop-opacity:1;stop-color:#009044" />

    </linearGradient>

    <linearGradient

       id="linearGradient2866"

       spreadMethod="pad"

       gradientTransform="matrix(33.46853,33.66406,-33.66265,33.46713,254.7626,623.0109)"

       gradientUnits="userSpaceOnUse"

       y2="0"

       x2="1"

       y1="0"

       x1="0">

      <stop

         id="stop2856"

         offset="0"

         style="stop-opacity:1;stop-color:#1f3e8c" />

      <stop

         id="stop2858"

         offset="0.14"

         style="stop-opacity:1;stop-color:#254aa5" />

      <stop

         id="stop2860"

         offset="0.41"

         style="stop-opacity:1;stop-color:#1d5eb3" />

      <stop

         id="stop2862"

         offset="0.86"

         style="stop-opacity:1;stop-color:#254aa5" />

      <stop

         id="stop2864"

         offset="1"

         style="stop-opacity:1;stop-color:#1d3c85" />

    </linearGradient>

    <linearGradient

       id="linearGradient2842"

       spreadMethod="pad"

       gradientTransform="matrix(0,40.14992,-8.51811,0,240.9968,639.6729)"

       gradientUnits="userSpaceOnUse"

       y2="0"

       x2="1"

       y1="0"

       x1="0">

      <stop

         id="stop2830"

         offset="0"

         style="stop-opacity:1;stop-color:#deddde" />

      <stop

         id="stop2832"

         offset="0.31"

         style="stop-opacity:1;stop-color:#ededed" />

      <stop

         id="stop2834"

         offset="0.54"

         style="stop-opacity:1;stop-color:#ffffff" />

      <stop

         id="stop2836"

         offset="0.72"

         style="stop-opacity:1;stop-color:#ffffff" />

      <stop

         id="stop2838"

         offset="0.99"

         style="stop-opacity:1;stop-color:#deddde" />

      <stop

         id="stop2840"

         offset="1"

         style="stop-opacity:1;stop-color:#d3d2d2" />

    </linearGradient>

    <linearGradient

       id="linearGradient2816"

       spreadMethod="pad"

       gradientTransform="matrix(1.03001,-20.72573,22.47566,1.11698,254.0653,659.0186)"

       gradientUnits="userSpaceOnUse"

       y2="0"

       x2="0.98000002"

       y1="0"

       x1="0.02">

      <stop

         id="stop2808"

         offset="0"

         style="stop-opacity:1;stop-color:#ed1c24" />

      <stop

         id="stop2810"

         offset="0.83"

         style="stop-opacity:1;stop-color:#ed1c24" />

      <stop

         id="stop2812"

         offset="0.96"

         style="stop-opacity:1;stop-color:#b4141a" />

      <stop

         id="stop2814"

         offset="1"

         style="stop-opacity:1;stop-color:#b4141a" />

    </linearGradient>

    <linearGradient

       id="linearGradient2794"

       spreadMethod="pad"

       gradientTransform="matrix(1.05491,-21.22684,12.62495,0.62742,243.2546,679.9292)"

       gradientUnits="userSpaceOnUse"

       y2="0"

       x2="0.99000001"

       y1="0"

       x1="0.0099999998">

      <stop

         id="stop2784"

         offset="0"

         style="stop-opacity:1;stop-color:#d71920" />

      <stop

         id="stop2786"

         offset="0.06"

         style="stop-opacity:1;stop-color:#d71920" />

      <stop

         id="stop2788"

         offset="0.11"

         style="stop-opacity:1;stop-color:#ed1c24" />

      <stop

         id="stop2790"

         offset="0.99"

         style="stop-opacity:1;stop-color:#ed1c24" />

      <stop

         id="stop2792"

         offset="1"

         style="stop-opacity:1;stop-color:#b4141a" />

    </linearGradient>

    <linearGradient

       id="linearGradient2770"

       spreadMethod="pad"

       gradientTransform="matrix(44.10358,-18.90131,13.68507,31.9322,218.0066,641.5676)"

       gradientUnits="userSpaceOnUse"

       y2="0"

       x2="1"

       y1="0"

       x1="0">

      <stop

         id="stop2760"

         offset="0"

         style="stop-opacity:1;stop-color:#fcd205" />

      <stop

         id="stop2762"

         offset="0.13"

         style="stop-opacity:1;stop-color:#fcd205" />

      <stop

         id="stop2764"

         offset="0.46"

         style="stop-opacity:1;stop-color:#fff200" />

      <stop

         id="stop2766"

         offset="0.88"

         style="stop-opacity:1;stop-color:#fff200" />

      <stop

         id="stop2768"

         offset="1"

         style="stop-opacity:1;stop-color:#fcd205" />

    </linearGradient>

    <linearGradient

       id="linearGradient2746"

       spreadMethod="pad"

       gradientTransform="matrix(93.98863,0,0,19.16759,224.8475,660.6553)"

       gradientUnits="userSpaceOnUse"

       y2="0"

       x2="1"

       y1="0"

       x1="0">

      <stop

         id="stop2734"

         offset="0"

         style="stop-opacity:1;stop-color:#00813c" />

      <stop

         id="stop2736"

         offset="0.01"

         style="stop-opacity:1;stop-color:#00813c" />

      <stop

         id="stop2738"

         offset="0.11"

         style="stop-opacity:1;stop-color:#00a650" />

      <stop

         id="stop2740"

         offset="0.88"

         style="stop-opacity:1;stop-color:#00a650" />

      <stop

         id="stop2742"

         offset="0.97"

         style="stop-opacity:1;stop-color:#009044" />

      <stop

         id="stop2744"

         offset="1"

         style="stop-opacity:1;stop-color:#009044" />

    </linearGradient>

    <linearGradient

       id="linearGradient2566"

       spreadMethod="pad"

       gradientTransform="matrix(32.91713,33.10944,-33.10803,32.91573,414.2463,622.5228)"

       gradientUnits="userSpaceOnUse"

       y2="0"

       x2="1"

       y1="0"

       x1="0">

      <stop

         id="stop2556"

         offset="0"

         style="stop-opacity:1;stop-color:#1f3e8c" />

      <stop

         id="stop2558"

         offset="0.14"

         style="stop-opacity:1;stop-color:#254aa5" />

      <stop

         id="stop2560"

         offset="0.41"

         style="stop-opacity:1;stop-color:#1d5eb3" />

      <stop

         id="stop2562"

         offset="0.86"

         style="stop-opacity:1;stop-color:#254aa5" />

      <stop

         id="stop2564"

         offset="1"

         style="stop-opacity:1;stop-color:#1d3c85" />

    </linearGradient>

    <linearGradient

       id="linearGradient2542"

       spreadMethod="pad"

       gradientTransform="matrix(0,39.48888,-8.37751,0,400.7072,638.9099)"

       gradientUnits="userSpaceOnUse"

       y2="0"

       x2="1"

       y1="0"

       x1="0">

      <stop

         id="stop2530"

         offset="0"

         style="stop-opacity:1;stop-color:#deddde" />

      <stop

         id="stop2532"

         offset="0.31"

         style="stop-opacity:1;stop-color:#ededed" />

      <stop

         id="stop2534"

         offset="0.54"

         style="stop-opacity:1;stop-color:#ffffff" />

      <stop

         id="stop2536"

         offset="0.72"

         style="stop-opacity:1;stop-color:#ffffff" />

      <stop

         id="stop2538"

         offset="0.99"

         style="stop-opacity:1;stop-color:#deddde" />

      <stop

         id="stop2540"

         offset="1"

         style="stop-opacity:1;stop-color:#d3d2d2" />

    </linearGradient>

    <linearGradient

       id="linearGradient2516"

       spreadMethod="pad"

       gradientTransform="matrix(1.01306,-20.38457,22.10478,1.09855,413.5609,657.9371)"

       gradientUnits="userSpaceOnUse"

       y2="0"

       x2="0.98000002"

       y1="0"

       x1="0.02">

      <stop

         id="stop2508"

         offset="0"

         style="stop-opacity:1;stop-color:#ed1c24" />

      <stop

         id="stop2510"

         offset="0.83"

         style="stop-opacity:1;stop-color:#ed1c24" />

      <stop

         id="stop2512"

         offset="0.96"

         style="stop-opacity:1;stop-color:#b4141a" />

      <stop

         id="stop2514"

         offset="1"

         style="stop-opacity:1;stop-color:#b4141a" />

    </linearGradient>

    <linearGradient

       id="linearGradient2494"

       spreadMethod="pad"

       gradientTransform="matrix(1.03755,-20.87748,12.41658,0.61707,402.9282,678.5033)"

       gradientUnits="userSpaceOnUse"

       y2="0"

       x2="0.99000001"

       y1="0"

       x1="0.0099999998">

      <stop

         id="stop2484"

         offset="0"

         style="stop-opacity:1;stop-color:#d71920" />

      <stop

         id="stop2486"

         offset="0.06"

         style="stop-opacity:1;stop-color:#d71920" />

      <stop

         id="stop2488"

         offset="0.11"

         style="stop-opacity:1;stop-color:#ed1c24" />

      <stop

         id="stop2490"

         offset="0.99"

         style="stop-opacity:1;stop-color:#ed1c24" />

      <stop

         id="stop2492"

         offset="1"

         style="stop-opacity:1;stop-color:#b4141a" />

    </linearGradient>

    <linearGradient

       id="linearGradient2470"

       spreadMethod="pad"

       gradientTransform="matrix(43.3777,-18.59022,13.45984,31.40668,378.0958,640.7734)"

       gradientUnits="userSpaceOnUse"

       y2="0"

       x2="1"

       y1="0"

       x1="0">

      <stop

         id="stop2460"

         offset="0"

         style="stop-opacity:1;stop-color:#fcd205" />

      <stop

         id="stop2462"

         offset="0.13"

         style="stop-opacity:1;stop-color:#fcd205" />

      <stop

         id="stop2464"

         offset="0.46"

         style="stop-opacity:1;stop-color:#fff200" />

      <stop

         id="stop2466"

         offset="0.88"

         style="stop-opacity:1;stop-color:#fff200" />

      <stop

         id="stop2468"

         offset="1"

         style="stop-opacity:1;stop-color:#fcd205" />

    </linearGradient>

    <linearGradient

       id="linearGradient2446"

       spreadMethod="pad"

       gradientTransform="matrix(92.44063,0,0,18.85238,384.8241,659.5464)"

       gradientUnits="userSpaceOnUse"

       y2="0"

       x2="1"

       y1="0"

       x1="0">

      <stop

         id="stop2434"

         offset="0"

         style="stop-opacity:1;stop-color:#00813c" />

      <stop

         id="stop2436"

         offset="0.01"

         style="stop-opacity:1;stop-color:#00813c" />

      <stop

         id="stop2438"

         offset="0.11"

         style="stop-opacity:1;stop-color:#00a650" />

      <stop

         id="stop2440"

         offset="0.88"

         style="stop-opacity:1;stop-color:#00a650" />

      <stop

         id="stop2442"

         offset="0.97"

         style="stop-opacity:1;stop-color:#009044" />

      <stop

         id="stop2444"

         offset="1"

         style="stop-opacity:1;stop-color:#009044" />

    </linearGradient>

    <linearGradient

       id="linearGradient1966"

       spreadMethod="pad"
       gradientTransform="matrix(32.50503,32.69493,-32.69352,32.50363,253.0358,387.3146)"

       gradientUnits="userSpaceOnUse"

       y2="0"

       x2="1"

       y1="0"

       x1="0">

      <stop

         id="stop1956"

         offset="0"

         style="stop-opacity:1;stop-color:#1f3e8c" />

      <stop

         id="stop1958"

         offset="0.14"

         style="stop-opacity:1;stop-color:#254aa5" />

      <stop

         id="stop1960"

         offset="0.41"

         style="stop-opacity:1;stop-color:#1d5eb3" />

      <stop

         id="stop1962"

         offset="0.86"

         style="stop-opacity:1;stop-color:#254aa5" />

      <stop

         id="stop1964"

         offset="1"

         style="stop-opacity:1;stop-color:#1d3c85" />

    </linearGradient>

    <linearGradient

       id="linearGradient1942"

       spreadMethod="pad"

       gradientTransform="matrix(0,38.99452,-8.27263,0,239.6659,403.4965)"

       gradientUnits="userSpaceOnUse"

       y2="0"

       x2="1"

       y1="0"

       x1="0">

      <stop

         id="stop1930"

         offset="0"

         style="stop-opacity:1;stop-color:#deddde" />

      <stop

         id="stop1932"

         offset="0.31"

         style="stop-opacity:1;stop-color:#ededed" />

      <stop

         id="stop1934"

         offset="0.54"

         style="stop-opacity:1;stop-color:#ffffff" />

      <stop

         id="stop1936"

         offset="0.72"

         style="stop-opacity:1;stop-color:#ffffff" />

      <stop

         id="stop1938"

         offset="0.99"

         style="stop-opacity:1;stop-color:#deddde" />

      <stop

         id="stop1940"

         offset="1"

         style="stop-opacity:1;stop-color:#d3d2d2" />

    </linearGradient>

    <linearGradient

       id="linearGradient1916"

       spreadMethod="pad"

       gradientTransform="matrix(1.00038,-20.12949,21.82875,1.08483,252.3586,422.286)"

       gradientUnits="userSpaceOnUse"

       y2="0"
       x2="0.98000002"

       y1="0"

       x1="0.02">

      <stop

         id="stop1908"

         offset="0"

         style="stop-opacity:1;stop-color:#ed1c24" />

      <stop

         id="stop1910"

         offset="0.83"

         style="stop-opacity:1;stop-color:#ed1c24" />

      <stop

         id="stop1912"

         offset="0.96"

         style="stop-opacity:1;stop-color:#b4141a" />

      <stop

         id="stop1914"

         offset="1"

         style="stop-opacity:1;stop-color:#b4141a" />

    </linearGradient>

    <linearGradient

       id="linearGradient1894"

       spreadMethod="pad"

       gradientTransform="matrix(1.02455,-20.61588,12.26172,0.60937,241.8591,442.5942)"

       gradientUnits="userSpaceOnUse"

       y2="0"

       x2="0.99000001"

       y1="0"

       x1="0.0099999998">

      <stop

         id="stop1884"

         offset="0"

         style="stop-opacity:1;stop-color:#d71920" />

      <stop

         id="stop1886"

         offset="0.06"

         style="stop-opacity:1;stop-color:#d71920" />

      <stop

         id="stop1888"

         offset="0.11"

         style="stop-opacity:1;stop-color:#ed1c24" />

      <stop

         id="stop1890"

         offset="0.99"

         style="stop-opacity:1;stop-color:#ed1c24" />

      <stop

         id="stop1892"

         offset="1"

         style="stop-opacity:1;stop-color:#b4141a" />

    </linearGradient>

    <linearGradient

       id="linearGradient1870"

       spreadMethod="pad"

       gradientTransform="matrix(42.83499,-18.35763,13.29157,31.01404,217.3374,405.3368)"

       gradientUnits="userSpaceOnUse"

       y2="0"

       x2="1"

       y1="0"

       x1="0">

      <stop

         id="stop1860"

         offset="0"

         style="stop-opacity:1;stop-color:#fcd205" />

      <stop

         id="stop1862"

         offset="0.13"

         style="stop-opacity:1;stop-color:#fcd205" />

      <stop

         id="stop1864"

         offset="0.46"

         style="stop-opacity:1;stop-color:#fff200" />

      <stop

         id="stop1866"

         offset="0.88"

         style="stop-opacity:1;stop-color:#fff200" />

      <stop

         id="stop1868"

         offset="1"

         style="stop-opacity:1;stop-color:#fcd205" />

    </linearGradient>

    <linearGradient

       id="linearGradient1846"

       spreadMethod="pad"

       gradientTransform="matrix(91.28381,0,0,18.61597,223.9815,423.8751)"

       gradientUnits="userSpaceOnUse"

       y2="0"

       x2="1"

       y1="0"

       x1="0">

      <stop

         id="stop1834"

         offset="0"

         style="stop-opacity:1;stop-color:#00813c" />

      <stop

         id="stop1836"

         offset="0.01"

         style="stop-opacity:1;stop-color:#00813c" />

      <stop

         id="stop1838"

         offset="0.11"

         style="stop-opacity:1;stop-color:#00a650" />

      <stop

         id="stop1840"

         offset="0.88"

         style="stop-opacity:1;stop-color:#00a650" />

      <stop

         id="stop1842"

         offset="0.97"

         style="stop-opacity:1;stop-color:#009044" />

      <stop

         id="stop1844"

         offset="1"

         style="stop-opacity:1;stop-color:#009044" />

    </linearGradient>

    <linearGradient

       id="linearGradient3166"

       spreadMethod="pad"

       gradientTransform="matrix(32.6825,32.87344,-32.87223,32.6813,93.9858,387.9164)"

       gradientUnits="userSpaceOnUse"

       y2="0"

       x2="1"

       y1="0"

       x1="0">

      <stop

         id="stop3156"

         offset="0"

         style="stop-opacity:1;stop-color:#1f3e8c" />

      <stop

         id="stop3158"

         offset="0.14"

         style="stop-opacity:1;stop-color:#254aa5" />

      <stop

         id="stop3160"

         offset="0.41"

         style="stop-opacity:1;stop-color:#1d5eb3" />

      <stop

         id="stop3162"

         offset="0.86"

         style="stop-opacity:1;stop-color:#254aa5" />

      <stop

         id="stop3164"

         offset="1"

         style="stop-opacity:1;stop-color:#1d3c85" />

    </linearGradient>

    <linearGradient

       id="linearGradient3142"

       spreadMethod="pad"

       gradientTransform="matrix(0,39.20769,-8.31798,0,80.5431,404.1865)"

       gradientUnits="userSpaceOnUse"

       y2="0"

       x2="1"

       y1="0"

       x1="0">

      <stop

         id="stop3130"

         offset="0"

         style="stop-opacity:1;stop-color:#deddde" />

      <stop

         id="stop3132"

         offset="0.31"

         style="stop-opacity:1;stop-color:#ededed" />

      <stop

         id="stop3134"

         offset="0.54"

         style="stop-opacity:1;stop-color:#ffffff" />

      <stop

         id="stop3136"

         offset="0.72"

         style="stop-opacity:1;stop-color:#ffffff" />

      <stop

         id="stop3138"

         offset="0.99"

         style="stop-opacity:1;stop-color:#deddde" />

      <stop

         id="stop3140"

         offset="1"

         style="stop-opacity:1;stop-color:#d3d2d2" />

    </linearGradient>

    <linearGradient

       id="linearGradient3116"

       spreadMethod="pad"

       gradientTransform="matrix(1.00582,-20.23905,21.94822,1.09077,93.3049,423.0788)"

       gradientUnits="userSpaceOnUse"

       y2="0"

       x2="0.98000002"

       y1="0"

       x1="0.02">

      <stop

         id="stop3108"

         offset="0"

         style="stop-opacity:1;stop-color:#ed1c24" />

      <stop

         id="stop3110"

         offset="0.83"

         style="stop-opacity:1;stop-color:#ed1c24" />

      <stop

         id="stop3112"

         offset="0.96"

         style="stop-opacity:1;stop-color:#b4141a" />

      <stop

         id="stop3114"

         offset="1"

         style="stop-opacity:1;stop-color:#b4141a" />

    </linearGradient>

    <linearGradient

       id="linearGradient3094"

       spreadMethod="pad"

       gradientTransform="matrix(1.03015,-20.72856,12.32825,0.61268,82.7481,443.4979)"

       gradientUnits="userSpaceOnUse"

       y2="0"

       x2="0.99000001"

       y1="0"

       x1="0.0099999998">

      <stop

         id="stop3084"

         offset="0"

         style="stop-opacity:1;stop-color:#d71920" />

      <stop

         id="stop3086"

         offset="0.06"

         style="stop-opacity:1;stop-color:#d71920" />

      <stop

         id="stop3088"

         offset="0.11"

         style="stop-opacity:1;stop-color:#ed1c24" />

      <stop

         id="stop3090"

         offset="0.99"

         style="stop-opacity:1;stop-color:#ed1c24" />

      <stop

         id="stop3092"

         offset="1"

         style="stop-opacity:1;stop-color:#b4141a" />

    </linearGradient>

    <linearGradient

       id="linearGradient3070"

       spreadMethod="pad"

       gradientTransform="matrix(43.06844,-18.45768,13.36393,31.18287,58.0927,406.0372)"

       gradientUnits="userSpaceOnUse"

       y2="0"

       x2="1"

       y1="0"

       x1="0">

      <stop

         id="stop3060"

         offset="0"

         style="stop-opacity:1;stop-color:#fcd205" />

      <stop

         id="stop3062"

         offset="0.13"

         style="stop-opacity:1;stop-color:#fcd205" />

      <stop

         id="stop3064"

         offset="0.46"

         style="stop-opacity:1;stop-color:#fff200" />

      <stop

         id="stop3066"

         offset="0.88"

         style="stop-opacity:1;stop-color:#fff200" />

      <stop

         id="stop3068"

         offset="1"

         style="stop-opacity:1;stop-color:#fcd205" />

    </linearGradient>

    <linearGradient

       id="linearGradient3046"

       spreadMethod="pad"

       gradientTransform="matrix(91.78186,0,0,18.71802,64.7731,424.6761)"

       gradientUnits="userSpaceOnUse"

       y2="0"

       x2="1"

       y1="0"

       x1="0">

      <stop

         id="stop3034"

         offset="0"

         style="stop-opacity:1;stop-color:#00813c" />

      <stop

         id="stop3036"

         offset="0.01"

         style="stop-opacity:1;stop-color:#00813c" />

      <stop

         id="stop3038"

         offset="0.11"

         style="stop-opacity:1;stop-color:#00a650" />

      <stop

         id="stop3040"

         offset="0.88"

         style="stop-opacity:1;stop-color:#00a650" />

      <stop

         id="stop3042"

         offset="0.97"

         style="stop-opacity:1;stop-color:#009044" />

      <stop

         id="stop3044"

         offset="1"

         style="stop-opacity:1;stop-color:#009044" />

    </linearGradient>

  </defs>

  <metadata

     id="metadata4616">

    <rdf:RDF>

      <cc:Work

         rdf:about="">

        <dc:format>image/svg+xml</dc:format>

        <dc:type

           rdf:resource="http://purl.org/dc/dcmitype/StillImage" />

        <dc:title></dc:title>

      </cc:Work>

    </rdf:RDF>

  </metadata>

  <g

     transform="translate(-31.954624,-49.880765)"

     id="layer1">

    <g

       transform="matrix(2.9842143,0,0,2.9842143,-457.60512,-408.89076)"

       id="g6505">

      <g

         transform="matrix(0.35277777,0,0,-0.35277777,142.08579,311.03889)"

         id="g3024">

        <g

           id="g3026">

          <g

             id="g3032">

            <path

               d="m 75.6797,426.8035 c 0.0992,1.5939 0.172,3.1918 0.2134,4.7943 -3.6635,-0.9159 -7.3729,-1.6742 -11.1197,-2.2658 v -4.6553 c 3.6714,0.5596 7.3099,1.2671 10.9063,2.1268 z m 15.057,9.476 c 0.5403,-1.4386 1.1322,-2.8559 1.7657,-4.2543 7.9061,3.0442 15.5163,6.8499 22.7336,11.3687 h -9.1145 c -4.9728,-2.7105 -10.1101,-5.0888 -15.3848,-7.1144 z m -2.573,-5.8318 c -2.5753,-0.8895 -5.1772,-1.7024 -7.806,-2.4326 0.0827,1.6058 0.1357,3.2156 0.1613,4.8302 1.9794,0.5746 3.943,1.1971 5.8906,1.866 0.5398,-1.4402 1.126,-2.8607 1.7541,-4.2636"

               style="fill:url(#linearGradient3046);fill-rule:evenodd;stroke:none"

               id="path3048" />

          </g>

        </g>

      </g>

      <g

         transform="matrix(0.35277777,0,0,-0.35277777,142.08579,311.03889)"

         id="g3050">

        <g

           id="g3052">

          <g

             id="g3058">

            <path

               d="m 64.7734,420.6115 v -4.6474 c 3.2,-0.4561 6.3683,-1.0428 9.4986,-1.7674 0.2463,1.5177 0.4586,3.0419 0.6505,4.5712 -3.3443,0.7614 -6.7289,1.3765 -10.1491,1.8436 z m 20.6872,-4.7534 c -1.9939,0.6562 -4.011,1.2424 -6.0398,1.7907 -0.199,-1.5336 -0.4218,-3.062 -0.6738,-4.5848 1.3513,-0.3722 2.6944,-0.7724 4.0295,-1.1948 0.8492,1.3609 1.7501,2.6864 2.6841,3.9889 z m 22.3838,-11.6705 h -6.658 c -4.5066,2.3768 -9.1548,4.4237 -13.9153,6.1551 0.8634,1.3377 1.7756,2.6422 2.7278,3.9181 4.6357,-1.7433 9.1598,-3.7922 13.5598,-6.1248 1.3725,-1.3675 2.8006,-2.6856 4.2857,-3.9484"

               style="fill:url(#linearGradient3070);fill-rule:evenodd;stroke:none"

               id="path3072" />

          </g>

        </g>

      </g>

      <g

         transform="matrix(0.35277777,0,0,-0.35277777,142.08579,311.03889)"

         id="g3074">

        <g

           id="g3076">

          <g

             id="g3082">

            <path

               d="m 92.5024,432.0252 c -0.6335,1.3984 -1.2254,2.8157 -1.7657,4.2543 l -0.0408,0.1088 -0.0408,0.1091 -0.0405,0.1092 -0.04,0.1094 -0.0403,0.1091 v 0 l -0.0399,0.1095 -0.0397,0.1094 -0.0397,0.1097 -0.0391,0.1094 -0.0394,0.1097 -0.0389,0.1097 -0.0388,0.1097 v 3e-4 l -0.0385,0.1094 v 3e-4 l -0.0386,0.11 -0.038,0.1097 v 2e-4 l -0.0383,0.11 v 3e-4 l -0.0377,0.11 -0.0377,0.1103 v 2e-4 l -0.0374,0.11 -0.0374,0.1106 -0.0368,0.1102 v 3e-4 l -0.0372,0.1103 -0.0365,0.1106 v 2e-4 l -0.0366,0.1103 v 3e-4 l -0.0366,0.1105 v 3e-4 l -0.036,0.1103 v 3e-4 l -0.036,0.1108 v 3e-4 l -0.0357,0.1105 -3e-4,3e-4 -0.0354,0.1106 v 3e-4 l -0.0354,0.1108 v 3e-4 l -0.0355,0.1108 v 3e-4 l -0.0348,0.1111 v 3e-4 l -0.0349,0.1108 v 3e-4 l -0.0349,0.1111 v 3e-4 l -0.0343,0.1111 v 3e-4 l -0.0343,0.1111 -3e-4,3e-4 -0.0337,0.1111 v 3e-4 l -0.034,0.1114 -3e-4,3e-4 -0.0337,0.1114 v 3e-4 l -0.0335,0.1114 v 3e-4 l -0.0334,0.1114 v 3e-4 l -0.0332,0.1114 v 5e-4 l -0.0329,0.1114 -2e-4,3e-4 -0.0326,0.1117 -3e-4,3e-4 -0.0326,0.1117 v 5e-4 l -0.0323,0.1117 v 0 l -0.0324,0.1117 v 6e-4 l -0.0323,0.1117 v 5e-4 l -0.0317,0.1117 -3e-4,6e-4 -0.0315,0.1119 -2e-4,3e-4 -0.0315,0.112 -3e-4,3e-4 -0.0309,0.1119 -3e-4,6e-4 -0.0312,0.112 -2e-4,6e-4 -0.0307,0.1122 -2e-4,3e-4 -0.0307,0.1122 -2e-4,3e-4 -0.0304,0.1123 v 3e-4 l -0.0306,0.1125 v 3e-4 l -0.0303,0.1125 v 3e-4 l -0.0301,0.1122 -2e-4,6e-4 -0.0298,0.1125 -3e-4,3e-4 -0.0295,0.1126 v 3e-4 l -0.0295,0.1125 v 6e-4 l -0.0294,0.1128 v 3e-4 l -0.0292,0.1125 h -4.7466 l 0.0334,-0.1378 v -5e-4 l 0.0335,-0.1378 v -6e-4 l 0.034,-0.1375 v -5e-4 l 0.0343,-0.1375 v -3e-4 l 0.0346,-0.1377 v -3e-4 l 0.0348,-0.1378 v -3e-4 l 0.0349,-0.1375 v -2e-4 l 0.0351,-0.1375 v -3e-4 l 0.0355,-0.1375 v -6e-4 l 0.036,-0.1369 v -5e-4 l 0.036,-0.1369 v -6e-4 l 0.0363,-0.1369 v -6e-4 l 0.0362,-0.1369 v -3e-4 l 0.0369,-0.1369 v -3e-4 l 0.0371,-0.1372 v 0 l 0.0374,-0.1369 v -6e-4 l 0.0375,-0.1363 v -6e-4 l 0.0379,-0.1363 v -6e-4 l 0.038,-0.1366 v -3e-4 l 0.0383,-0.1363 v -6e-4 l 0.0388,-0.1361 v -5e-4 l 0.0389,-0.1364 v -3e-4 l 0.0391,-0.136 v -3e-4 l 0.0394,-0.1364 v -3e-4 l 0.0394,-0.136 v -3e-4 l 0.0399,-0.1361 v -2e-4 l 0.04,-0.1358 v -3e-4 l 0.0406,-0.1361 v -3e-4 l 0.0408,-0.1355 v -2e-4 l 0.0408,-0.1358 v -3e-4 l 0.0411,-0.1355 v -3e-4 l 0.0414,-0.1355 v -3e-4 l 0.0416,-0.1355 v -2e-4 l 0.0423,-0.1352 v -3e-4 l 0.0419,-0.1352 v -3e-4 l 0.0426,-0.1352 v -3e-4 l 0.0428,-0.1352 v -3e-4 l 0.0428,-0.1349 v 0 l 0.0433,-0.135 v -3e-4 l 0.0434,-0.1349 0.0437,-0.1349 v -3e-4 l 0.0442,-0.1346 v -3e-4 l 0.0442,-0.1344 v -3e-4 l 0.0445,-0.1346 0.0448,-0.1344 v -3e-4 l 0.0448,-0.1343 0.0453,-0.1344 v -3e-4 l 0.0457,-0.1341 0.0459,-0.134 v -3e-4 l 0.0459,-0.1341 v 0 l 0.0462,-0.1341 0.0465,-0.1338 0.0471,-0.1338 0.047,-0.1335 v -3e-4 l 0.0471,-0.1338 0.0479,-0.1332 v -3e-4 l 0.0476,-0.1332 0.0482,-0.1335 0.0485,-0.133 v -2e-4 l 0.0484,-0.1333 0.0488,-0.1329 0.0493,-0.133 0.0493,-0.1326 0.0496,-0.133 c 0.5398,-1.4402 1.126,-2.8607 1.7541,-4.2636 1.065,-2.3811 2.2572,-4.7032 3.5671,-6.9607 1.0871,1.1582 2.2119,2.2816 3.3733,3.369 -0.9394,1.686 -1.8054,3.4115 -2.6017,5.1692"

               style="fill:url(#linearGradient3094);fill-rule:evenodd;stroke:none"

               id="path3096" />

          </g>

        </g>

      </g>

      <g

         transform="matrix(0.35277777,0,0,-0.35277777,142.08579,311.03889)"

         id="g3098">

        <g

           id="g3100">

          <g

             id="g3106">

            <path

               d="m 97.5387,422.8211 c -1.1347,-1.0922 -2.2235,-2.228 -3.2796,-3.3925 2.707,-4.0433 5.8203,-7.8281 9.2996,-11.2926 1.3725,-1.3675 2.8006,-2.6856 4.2857,-3.9484 h 7.4596 c -7.1189,5.108 -13.1082,11.4588 -17.7653,18.6335"

               style="fill:url(#linearGradient3116);fill-rule:evenodd;stroke:none"

               id="path3118" />

          </g>

        </g>

      </g>

      <g

         transform="matrix(0.35277777,0,0,-0.35277777,142.08579,311.03889)"

         id="g3120">

        <g

           id="g3122">

          <g

             id="g3128">

            <path

               d="m 75.657,443.3933 0.0082,-0.1307 v -6e-4 l 0.0085,-0.1303 v -6e-4 l 0.0082,-0.1307 v -6e-4 l 0.0082,-0.1306 v -3e-4 l 0.0077,-0.1307 v -6e-4 l 0.0079,-0.1306 v -6e-4 l 0.0077,-0.1307 v -6e-4 l 0.0076,-0.1306 v -3e-4 l 0.0077,-0.131 v -3e-4 l 0.0074,-0.1309 v -3e-4 l 0.007,-0.131 v -2e-4 l 0.0071,-0.131 v -3e-4 l 0.0071,-0.1309 v -3e-4 l 0.0071,-0.1313 v 0 l 0.0065,-0.1312 v -3e-4 l 0.0068,-0.131 v -2e-4 l 0.0066,-0.1313 v 0 l 0.0062,-0.1312 v 0 l 0.0062,-0.1313 v -3e-4 l 0.0063,-0.1312 v 0 l 0.0059,-0.1313 v 0 l 0.006,-0.1312 v -3e-4 l 0.0056,-0.1312 v 0 l 0.0057,-0.1313 v -3e-4 l 0.0054,-0.1309 v -3e-4 l 0.0057,-0.1312 v -3e-4 l 0.0051,-0.131 v -3e-4 l 0.0051,-0.1312 v -3e-4 l 0.0048,-0.1312 v -3e-4 l 0.0051,-0.131 v -3e-4 l 0.0045,-0.1312 v -3e-4 l 0.0048,-0.1312 v -3e-4 l 0.0043,-0.1313 v -2e-4 l 0.0042,-0.1313 v -3e-4 l 0.0043,-0.1312 0.0042,-0.1313 v -2e-4 l 0.0037,-0.1313 v -3e-4 l 0.0037,-0.1312 v -3e-4 l 0.0037,-0.1312 v -3e-4 l 0.0037,-0.1316 0.0034,-0.1315 0.0031,-0.1315 v -3e-4 l 0.0031,-0.1312 v -3e-4 l 0.0029,-0.1313 v -3e-4 l 0.0028,-0.1312 v -3e-4 l 0.0028,-0.1312 0.0026,-0.1316 v -2e-4 l 0.0022,-0.1313 v -3e-4 l 0.0023,-0.1315 0.0023,-0.1315 0.0017,-0.1315 v -3e-4 l 0.002,-0.1316 0.0017,-0.1315 v -3e-4 l 0.0017,-0.1315 0.0011,-0.1315 v -3e-4 l 0.0014,-0.1315 0.0012,-0.1316 v -2e-4 l 8e-4,-0.1313 9e-4,-0.1318 5e-4,-0.1315 6e-4,-0.1318 6e-4,-0.1318 v -0.1316 -0.1318 c 0,-1.1299 -0.0182,-2.2569 -0.0471,-3.3831 -0.0414,-1.6025 -0.1142,-3.2004 -0.2134,-4.7943 -0.1687,-2.6926 -0.4224,-5.3719 -0.7572,-8.0356 -0.1919,-1.5293 -0.4042,-3.0535 -0.6505,-4.5712 -0.5468,-3.3656 -1.2337,-6.7014 -2.0466,-10.0091 h 4.7392 c 0.6953,2.9361 1.2892,5.8966 1.7824,8.8764 0.252,1.5228 0.4748,3.0512 0.6738,4.5848 0.4451,3.4313 0.7586,6.8881 0.9369,10.3663 0.0827,1.6058 0.1357,3.2156 0.1613,4.8302 0.011,0.7115 0.0241,1.423 0.0241,2.1356 v 0.1318 l -3e-4,0.1316 -3e-4,0.1318 -6e-4,0.1315 v 3e-4 l -8e-4,0.1315 -6e-4,0.1318 -8e-4,0.1313 -0.0012,0.1318 -0.0014,0.1315 -0.0011,0.1315 v 3e-4 l -0.0017,0.1315 -0.0014,0.1316 v 2e-4 l -0.002,0.1316 -0.0017,0.1315 -0.002,0.1315 v 3e-4 l -0.0023,0.1313 v 2e-4 l -0.0023,0.1316 -0.0022,0.1315 v 3e-4 l -0.0029,0.1312 v 0 l -0.0025,0.1313 v 2e-4 l -0.0028,0.1313 v 3e-4 l -0.0029,0.1315 -0.0031,0.1315 -0.0034,0.1316 -0.0031,0.1315 v 3e-4 l -0.0037,0.1312 v 3e-4 l -0.0037,0.1312 v 3e-4 l -0.0037,0.1313 -0.0039,0.1312 v 3e-4 l -0.0037,0.1312 v 3e-4 l -0.0043,0.1313 v 3e-4 l -0.0045,0.1312 v 3e-4 l -0.004,0.1312 v 3e-4 l -0.0048,0.1313 v 2e-4 l -0.0048,0.131 v 3e-4 l -0.0046,0.1312 v 3e-4 l -0.0051,0.1313 v 2e-4 l -0.0048,0.131 v 3e-4 l -0.0054,0.1312 v 3e-4 l -0.0051,0.131 v 2e-4 l -0.0053,0.1313 v 3e-4 l -0.0057,0.1309 v 3e-4 l -0.0057,0.1313 v 2e-4 l -0.0057,0.131 v 3e-4 l -0.0056,0.131 v 5e-4 l -0.0063,0.131 v 3e-4 l -0.0062,0.1309 v 3e-4 l -0.0062,0.131 v 5e-4 l -0.0063,0.1307 v 6e-4 l -0.0065,0.1309 v 3e-4 l -0.0068,0.131 v 3e-4 l -0.0065,0.1309 v 3e-4 l -0.0071,0.131 v 5e-4 l -0.0068,0.1307 v 6e-4 l -0.0068,0.1307 v 5e-4 l -0.0074,0.1307 v 6e-4 l -0.0073,0.1306 v 6e-4 l -0.0077,0.1307 v 3e-4 l -0.0074,0.1309 v 3e-4 l -0.0076,0.1307 v 6e-4 l -0.008,0.1306 v 6e-4 l -0.0076,0.1307 v 6e-4 l -0.0082,0.1303 v 6e-4 l -0.008,0.1307 z"

               style="fill:url(#linearGradient3142);fill-rule:evenodd;stroke:none"

               id="path3144" />

          </g>

        </g>

      </g>

      <g

         transform="matrix(0.35277777,0,0,-0.35277777,142.08579,311.03889)"

         id="g3146">

        <g

           id="g3148">

          <g

             id="g3154">

            <path

               d="m 95.1041,426.856 c -1.1614,-1.0874 -2.2862,-2.2108 -3.3733,-3.369 -2.2589,-2.4018 -4.3506,-4.953 -6.2702,-7.6289 -0.934,-1.3025 -1.8349,-2.628 -2.6841,-3.9889 -1.5409,-2.4704 -2.9223,-5.0403 -4.1644,-7.6816 h 5.1157 c 1.0763,2.1138 2.2598,4.1666 3.5433,6.1551 0.8634,1.3377 1.7756,2.6422 2.7278,3.9181 1.3362,1.7886 2.7572,3.513 4.2602,5.1678 1.0561,1.1645 2.1449,2.3003 3.2796,3.3925 3.5309,3.3991 7.4211,6.4438 11.6306,9.0491 v 5.3297 c -5.1112,-2.9002 -9.8289,-6.3777 -14.0652,-10.3439"

               style="fill:url(#linearGradient3166);fill-rule:evenodd;stroke:none"

               id="path3168" />

          </g>

        </g>

      </g>

      <path

         d="m 182.9055,159.14538 c 2.9e-4,0.0539 0.0104,0.10252 0.0308,0.14563 0.0202,0.0433 0.0496,0.0801 0.0877,0.11049 0.0382,0.0305 0.084,0.0537 0.13779,0.07 0.0539,0.0161 0.1143,0.0243 0.18129,0.0245 0.067,-2.2e-4 0.12743,-0.008 0.18112,-0.0245 0.0535,-0.0163 0.0993,-0.0395 0.1372,-0.07 0.038,-0.0304 0.0671,-0.0672 0.0873,-0.11049 0.0202,-0.0431 0.0303,-0.0917 0.0305,-0.14563 0,-0.04 -0.006,-0.0781 -0.017,-0.1142 -0.0116,-0.0361 -0.0288,-0.0692 -0.0517,-0.0992 -0.0232,-0.03 -0.052,-0.0561 -0.0868,-0.0783 -0.0347,-0.0219 -0.0756,-0.0391 -0.12221,-0.0513 -0.0468,-0.0121 -0.0995,-0.0182 -0.15839,-0.0184 -0.0589,2.2e-4 -0.11159,0.007 -0.1584,0.0186 -0.0468,0.0123 -0.0877,0.0295 -0.1227,0.0518 -0.035,0.0222 -0.0641,0.0485 -0.0873,0.0785 -0.0231,0.0302 -0.0404,0.0633 -0.0519,0.0992 -0.0116,0.0359 -0.0173,0.0736 -0.0173,0.11328 z m 0.0946,0 c 3.1e-4,-0.0642 0.0138,-0.11889 0.0409,-0.16408 0.0271,-0.045 0.0663,-0.0795 0.1173,-0.1034 0.051,-0.0238 0.1126,-0.0358 0.18478,-0.036 0.0717,2.2e-4 0.13282,0.0122 0.18362,0.036 0.0505,0.0239 0.0892,0.0584 0.11599,0.1034 0.0266,0.0452 0.0402,0.0999 0.0404,0.16408 -2.1e-4,0.0604 -0.0143,0.11222 -0.0419,0.15603 -0.0273,0.0436 -0.0665,0.0772 -0.11719,0.10079 -0.0508,0.0237 -0.11119,0.0355 -0.1809,0.0359 -0.0707,-3.4e-4 -0.1318,-0.0122 -0.18278,-0.0359 -0.0513,-0.0236 -0.0907,-0.0572 -0.11832,-0.10079 -0.0276,-0.0438 -0.0416,-0.0956 -0.0419,-0.15603 z m 1.35131,0.33771 h 0.0931 v -0.6315 h 0.5189 v 0.6315 h 0.0946 v -0.68618 h -0.70661 z m 1.2935,0 h 0.64749 v -0.0579 h -0.55288 v -0.26701 h 0.4952 v -0.0546 h -0.4952 v -0.24773 h 0.54109 v -0.059 h -0.6357 z m 1.2979,0 v -0.2734 h 0.23799 c 0.0459,0 0.0885,-0.004 0.12791,-0.0112 0.0394,-0.008 0.0739,-0.0195 0.10372,-0.036 0.0299,-0.0164 0.053,-0.0377 0.0698,-0.0641 0.0165,-0.0263 0.0251,-0.0583 0.0254,-0.0956 -2.9e-4,-0.0481 -0.0124,-0.0874 -0.0363,-0.11779 -0.0239,-0.0304 -0.0576,-0.0527 -0.10149,-0.0668 -0.0438,-0.0143 -0.0961,-0.0215 -0.15639,-0.0213 h -0.36371 v 0.68619 z m 0,-0.62611 h 0.24402 c 0.0559,0 0.10019,0.005 0.13349,0.0158 0.0333,0.0108 0.0569,0.027 0.0715,0.049 0.0145,0.0218 0.0214,0.0495 0.0212,0.0831 -3.2e-4,0.0304 -0.007,0.0552 -0.0195,0.0744 -0.0128,0.0193 -0.0303,0.0339 -0.053,0.0443 -0.0227,0.0105 -0.0488,0.0177 -0.0783,0.0216 -0.0299,0.004 -0.0619,0.006 -0.0961,0.005 h -0.22331 z m 1.00679,0.62611 h 0.10051 l 0.11229,-0.2166 h 0.41691 l 0.1124,0.2166 h 0.1005 l -0.37108,-0.68618 h -0.10051 z m 0.24092,-0.27231 0.17889,-0.3496 0.1833,0.3496 z m 1.33791,0.27231 h 0.0946 v -0.62611 h 0.30462 v -0.0601 h -0.7082 v 0.0601 h 0.309 z m 1.03039,0 0.5455,-0.60148 v 0.60148 h 0.0946 v -0.68618 h -0.11529 l -0.54098,0.609 v -0.609 h -0.0931 v 0.68618 z m 1.6129,0 c 0.0586,-2.1e-4 0.10739,-0.005 0.14629,-0.0134 0.039,-0.009 0.0703,-0.0203 0.0937,-0.0347 0.0234,-0.0142 0.0408,-0.0298 0.0527,-0.0468 0.0116,-0.017 0.0192,-0.0339 0.0229,-0.0505 0.004,-0.0168 0.005,-0.0319 0.005,-0.0454 2.2e-4,-0.0474 -0.0151,-0.0856 -0.0454,-0.11483 -0.0303,-0.0291 -0.0768,-0.048 -0.13938,-0.0568 0.053,-0.0143 0.0914,-0.0341 0.11529,-0.0595 0.0241,-0.0256 0.036,-0.055 0.0355,-0.0885 -2.6e-4,-0.0346 -0.008,-0.0634 -0.0222,-0.0863 -0.0145,-0.0228 -0.035,-0.0407 -0.0613,-0.0539 -0.0264,-0.0131 -0.057,-0.0224 -0.0924,-0.0277 -0.0353,-0.005 -0.0737,-0.008 -0.1154,-0.008 h -0.3799 v 0.68619 z m -0.28981,-0.3291 h 0.28829 c 0.0545,-1.8e-4 0.0988,0.004 0.1331,0.0139 0.0342,0.009 0.0593,0.0241 0.0754,0.0443 0.0159,0.0202 0.0238,0.0466 0.0236,0.079 2.2e-4,0.0316 -0.008,0.0574 -0.0234,0.0772 -0.0158,0.0196 -0.0406,0.0341 -0.0749,0.0432 -0.0343,0.009 -0.0789,0.0138 -0.1338,0.0136 h -0.28829 z m 0,-0.29919 h 0.2691 c 0.0293,-2.2e-4 0.0571,10e-4 0.0835,0.004 0.0261,0.003 0.0496,0.008 0.0697,0.0161 0.0203,0.008 0.0363,0.02 0.0478,0.0359 0.0116,0.0159 0.0175,0.0372 0.0178,0.0634 -2.7e-4,0.025 -0.006,0.0458 -0.0165,0.0624 -0.0109,0.0164 -0.0259,0.0293 -0.0454,0.0386 -0.0194,0.01 -0.0424,0.0161 -0.0685,0.02 -0.0261,0.004 -0.0547,0.006 -0.0855,0.006 h -0.272 z m 1.2803,0.62829 v -0.33559 h 0.55291 v 0.33559 h 0.0916 v -0.68618 h -0.0916 v 0.29587 h -0.55291 v -0.29587 h -0.0931 v 0.68618 z m 1.1309,0 h 0.10051 l 0.11239,-0.2166 h 0.41692 l 0.11229,0.2166 h 0.1005 l -0.37101,-0.68618 h -0.10051 z m 0.24091,-0.27231 0.1789,-0.3496 0.18341,0.3496 z m 1.50499,0.27231 h 0.0932 v -0.6315 h 0.5189 v 0.6315 h 0.0946 v -0.68618 h -0.70669 z m 1.3867,0 v -0.2734 h 0.23802 c 0.0458,0 0.0884,-0.004 0.12788,-0.0112 0.0394,-0.008 0.0739,-0.0195 0.10372,-0.036 0.0298,-0.0164 0.053,-0.0377 0.0697,-0.0641 0.0165,-0.0263 0.0252,-0.0583 0.0254,-0.0956 -1.8e-4,-0.0481 -0.0123,-0.0874 -0.0362,-0.11779 -0.0239,-0.0304 -0.0577,-0.0527 -0.1015,-0.0668 -0.0439,-0.0143 -0.0961,-0.0215 -0.15649,-0.0213 h -0.36361 v 0.68619 z m 0,-0.62611 h 0.24391 c 0.0559,0 0.10029,0.005 0.1336,0.0158 0.0332,0.0108 0.0568,0.027 0.0714,0.049 0.0145,0.0218 0.0214,0.0495 0.0212,0.0831 -2.7e-4,0.0304 -0.007,0.0552 -0.0195,0.0744 -0.0128,0.0193 -0.0303,0.0339 -0.053,0.0443 -0.0226,0.0105 -0.0487,0.0177 -0.0783,0.0216 -0.0298,0.004 -0.0618,0.006 -0.0961,0.005 h -0.22321 z m 1.06292,0.2884 c 1.7e-4,0.0539 0.0103,0.10252 0.0308,0.14563 0.0202,0.0433 0.0495,0.0801 0.0877,0.11049 0.0382,0.0305 0.084,0.0537 0.13769,0.07 0.054,0.0161 0.1143,0.0243 0.18139,0.0245 0.067,-2.2e-4 0.12739,-0.008 0.18109,-0.0245 0.0534,-0.0163 0.0992,-0.0395 0.13723,-0.07 0.0379,-0.0304 0.067,-0.0672 0.0872,-0.11049 0.0202,-0.0431 0.0303,-0.0917 0.0306,-0.14563 0,-0.04 -0.006,-0.0781 -0.017,-0.1142 -0.0116,-0.0361 -0.0289,-0.0692 -0.0518,-0.0992 -0.0231,-0.03 -0.052,-0.0561 -0.0867,-0.0783 -0.0347,-0.0219 -0.0757,-0.0391 -0.1222,-0.0513 -0.0468,-0.0121 -0.0996,-0.0182 -0.1584,-0.0184 -0.0589,2.2e-4 -0.11169,0.007 -0.1584,0.0186 -0.0469,0.0123 -0.0878,0.0295 -0.1228,0.0518 -0.035,0.0222 -0.064,0.0485 -0.0872,0.0785 -0.0231,0.0302 -0.0404,0.0633 -0.052,0.0992 -0.0116,0.0359 -0.0172,0.0736 -0.0172,0.11328 z m 0.0946,0 c 2.1e-4,-0.0642 0.0138,-0.11889 0.0409,-0.16408 0.0271,-0.045 0.0663,-0.0795 0.11733,-0.1034 0.051,-0.0238 0.11257,-0.0358 0.18479,-0.036 0.0717,2.2e-4 0.13278,0.0122 0.18351,0.036 0.0505,0.0239 0.0892,0.0584 0.1161,0.1034 0.0266,0.0452 0.0401,0.0999 0.0404,0.16408 -2.6e-4,0.0604 -0.0143,0.11222 -0.0419,0.15603 -0.0274,0.0436 -0.0665,0.0772 -0.1173,0.10079 -0.0507,0.0237 -0.11109,0.0355 -0.1808,0.0359 -0.0708,-3.4e-4 -0.13179,-0.0122 -0.18291,-0.0359 -0.0512,-0.0236 -0.0906,-0.0572 -0.11818,-0.10079 -0.0276,-0.0438 -0.0417,-0.0956 -0.0419,-0.15603 z m 1.44579,-0.2884 h 0.46132 v -0.0601 h -0.5559 v 0.68619 h 0.0946 z m 1.07921,0.62611 v -0.2734 h 0.23799 c 0.0459,0 0.0885,-0.004 0.12792,-0.0112 0.0394,-0.008 0.0739,-0.0195 0.10368,-0.036 0.0298,-0.0164 0.053,-0.0377 0.0698,-0.0641 0.0165,-0.0263 0.0251,-0.0583 0.0253,-0.0956 -2.2e-4,-0.0481 -0.0123,-0.0874 -0.0362,-0.11779 -0.0239,-0.0304 -0.0576,-0.0527 -0.1015,-0.0668 -0.0438,-0.0143 -0.0961,-0.0215 -0.15642,-0.0213 h -0.36368 v 0.68619 z m 0,-0.62611 h 0.24399 c 0.0559,0 0.10022,0.005 0.13352,0.0158 0.0332,0.0108 0.0569,0.027 0.0714,0.049 0.0146,0.0218 0.0215,0.0495 0.0212,0.0831 -2.1e-4,0.0304 -0.007,0.0552 -0.0194,0.0744 -0.0129,0.0193 -0.0304,0.0339 -0.053,0.0443 -0.0227,0.0105 -0.0488,0.0177 -0.0783,0.0216 -0.0299,0.004 -0.0619,0.006 -0.0962,0.005 h -0.2232 z m 1.00669,0.62611 h 0.10061 l 0.11229,-0.2166 h 0.41691 l 0.1124,0.2166 h 0.10051 l -0.37113,-0.68618 H 202.486 Z m 0.24102,-0.27231 0.17889,-0.3496 0.18331,0.3496 z m 1.21228,0.27231 v -0.61538 l 0.32819,0.61538 h 0.0901 l 0.32668,-0.61538 v 0.61538 h 0.0932 v -0.68618 h -0.1493 l -0.31641,0.60579 -0.3164,-0.60579 h -0.1493 v 0.68618 z m 1.32751,0 h 0.10061 l 0.11229,-0.2166 h 0.41691 l 0.11229,0.2166 h 0.10061 l -0.37112,-0.68618 h -0.10051 z m 0.24102,-0.27231 0.17889,-0.3496 0.1833,0.3496 z"

         style="fill:#7b7979;fill-opacity:1;fill-rule:nonzero;stroke:none;stroke-width:0.35277775"

         id="path3170" />

      <path

         d="m 183.2091,161.28201 c 0,-0.0956 0.0119,-0.18351 0.035,-0.265 0.0233,-0.0815 0.0583,-0.15332 0.1047,-0.21432 0.047,-0.0615 0.10481,-0.109 0.17438,-0.14351 0.0696,-0.0345 0.15053,-0.0529 0.24282,-0.054 0.0906,7.2e-4 0.17049,0.0184 0.2396,0.053 0.0691,0.035 0.12679,0.083 0.17318,0.1451 0.0464,0.0621 0.082,0.1343 0.1052,0.21689 0.0238,0.0826 0.0357,0.17222 0.0357,0.26822 0,0.0734 -0.007,0.14569 -0.0211,0.2154 -0.014,0.0701 -0.0351,0.13589 -0.0642,0.19689 -0.0286,0.061 -0.0653,0.1144 -0.10947,0.16079 -0.0449,0.0464 -0.0972,0.0826 -0.15762,0.10901 -0.061,0.0259 -0.1301,0.0394 -0.20778,0.04 -0.0799,-7.1e-4 -0.1505,-0.0141 -0.2116,-0.0405 -0.0604,-0.027 -0.11271,-0.0637 -0.1554,-0.1107 -0.0431,-0.0469 -0.0782,-0.10139 -0.10513,-0.16302 -0.027,-0.0614 -0.047,-0.12778 -0.0594,-0.19798 -0.013,-0.0706 -0.0189,-0.14301 -0.0189,-0.21629 z m 0.5601,1.10078 c 0.12788,-0.001 0.24338,-0.021 0.34749,-0.0588 0.10372,-0.0383 0.1954,-0.0912 0.27471,-0.15971 0.0793,-0.0686 0.14569,-0.14901 0.19918,-0.2413 0.0539,-0.0923 0.0943,-0.19321 0.12192,-0.30272 0.0275,-0.1096 0.041,-0.2245 0.041,-0.3448 -7.2e-4,-0.1555 -0.0227,-0.29679 -0.0674,-0.42418 -0.0454,-0.12792 -0.11011,-0.23802 -0.19541,-0.3308 -0.0847,-0.0928 -0.18831,-0.16401 -0.30921,-0.21421 -0.12139,-0.0508 -0.25901,-0.0761 -0.41229,-0.0766 -0.1602,0.001 -0.30272,0.0285 -0.4263,0.0831 -0.1235,0.0545 -0.22771,0.1306 -0.31252,0.22832 -0.0852,0.0982 -0.14887,0.21248 -0.19258,0.34417 -0.0437,0.13113 -0.0658,0.27411 -0.0658,0.42901 3.4e-4,0.15219 0.0237,0.29302 0.0691,0.4226 0.0458,0.1289 0.11222,0.24221 0.1991,0.3388 0.0863,0.0966 0.191,0.1716 0.31352,0.22511 0.12298,0.0539 0.26119,0.0809 0.4155,0.082 z m 1.7193,-0.0389 v -0.69932 l 0.20398,-0.20401 0.68312,0.90333 h 0.54398 l -0.90018,-1.21412 0.8516,-0.858 h -0.5407 l -0.8418,0.89031 v -0.89031 h -0.42421 v 2.07212 z m 1.97178,-1.0619 c 0,-0.0956 0.0119,-0.18352 0.035,-0.26501 0.0233,-0.0815 0.0583,-0.15331 0.10471,-0.21431 0.047,-0.0615 0.10481,-0.10901 0.17441,-0.14351 0.0696,-0.0345 0.15049,-0.0529 0.24278,-0.054 0.0906,7.1e-4 0.17053,0.0184 0.23961,0.053 0.0691,0.035 0.12682,0.083 0.17321,0.1451 0.0464,0.0621 0.082,0.1343 0.1052,0.21688 0.0238,0.0826 0.0357,0.17223 0.0357,0.26822 0,0.0734 -0.007,0.1457 -0.0211,0.21541 -0.0141,0.0701 -0.0351,0.13589 -0.0642,0.19688 -0.0286,0.061 -0.0653,0.11441 -0.10961,0.1608 -0.0448,0.0464 -0.0971,0.0826 -0.15748,0.10901 -0.061,0.0259 -0.1301,0.0394 -0.20782,0.04 -0.0799,-7.2e-4 -0.15049,-0.0141 -0.2116,-0.0405 -0.0604,-0.027 -0.11271,-0.0637 -0.15539,-0.1107 -0.0431,-0.0469 -0.0782,-0.10139 -0.1051,-0.16302 -0.027,-0.0614 -0.047,-0.12778 -0.0594,-0.19798 -0.013,-0.0706 -0.0189,-0.14302 -0.0189,-0.21629 z m 0.56011,1.10077 c 0.12791,-10e-4 0.24341,-0.021 0.34752,-0.0588 0.10368,-0.0383 0.19537,-0.0912 0.27467,-0.1597 0.0793,-0.0686 0.1457,-0.14901 0.19921,-0.2413 0.0539,-0.0923 0.0943,-0.19322 0.12189,-0.30272 0.0275,-0.10961 0.041,-0.22451 0.041,-0.3448 -7.2e-4,-0.15551 -0.0227,-0.2968 -0.0674,-0.42418 -0.0454,-0.12792 -0.1101,-0.23802 -0.19541,-0.3308 -0.0847,-0.0928 -0.18831,-0.16401 -0.30921,-0.21421 -0.12139,-0.0508 -0.25897,-0.0761 -0.41229,-0.0766 -0.16019,0.001 -0.30268,0.0285 -0.42629,0.0831 -0.12351,0.0545 -0.22769,0.1306 -0.31249,0.22832 -0.0852,0.0982 -0.14891,0.21248 -0.19262,0.34417 -0.0437,0.13112 -0.0658,0.27411 -0.0658,0.42901 3.4e-4,0.15219 0.0237,0.29302 0.0691,0.42259 0.0458,0.12891 0.11218,0.24222 0.19911,0.33881 0.0863,0.0966 0.19099,0.17159 0.31348,0.22511 0.12301,0.0539 0.26119,0.0809 0.4155,0.082 z m 1.1008,-0.0389 h 0.45011 l 0.5213,-1.59621 0.51799,1.59621 h 0.4597 l -0.72841,-2.07211 h -0.48239 z m 2.14341,0 h 0.42418 v -0.9001 h 0.81912 v 0.90011 h 0.42411 v -2.07211 h -0.42411 v 0.80289 h -0.81912 v -0.80289 h -0.42418 z m 2.80388,-1.59621 0.26232,0.81269 h -0.5213 z m -0.38199,1.15908 h 0.75759 l 0.14242,0.43713 h 0.45981 l -0.72852,-2.07211 h -0.48239 l -0.73822,2.07211 h 0.45 z m 3.27981,-1.67707 c -0.12742,3.5e-4 -0.24282,0.0188 -0.3448,0.0545 -0.10252,0.0361 -0.1922,0.0874 -0.26931,0.15322 -0.0772,0.0659 -0.1414,0.1447 -0.19259,0.2348 -0.0519,0.0906 -0.0902,0.1905 -0.11609,0.30001 -0.0259,0.1095 -0.0388,0.2256 -0.0388,0.34858 0,0.15271 0.0194,0.29411 0.0588,0.42252 0.0394,0.12897 0.0988,0.24119 0.17748,0.3368 0.0788,0.0955 0.17752,0.1694 0.2963,0.22228 0.11871,0.0529 0.25738,0.0799 0.41599,0.0804 0.1603,-3.4e-4 0.3011,-0.0313 0.42259,-0.0922 0.12143,-0.0611 0.2207,-0.14852 0.29782,-0.26232 0.0772,-0.11388 0.12961,-0.25037 0.15699,-0.40969 h -0.43061 c -0.0355,0.12961 -0.0901,0.2273 -0.16287,0.29309 -0.0734,0.0658 -0.1657,0.0988 -0.27743,0.0988 -0.0906,-7.1e-4 -0.16827,-0.0195 -0.23308,-0.0556 -0.0648,-0.0367 -0.11761,-0.0869 -0.15861,-0.1506 -0.0411,-0.0642 -0.0713,-0.13762 -0.0907,-0.2202 -0.0195,-0.0826 -0.0292,-0.1705 -0.0292,-0.26332 0,-0.15268 0.0211,-0.28218 0.0621,-0.38847 0.0416,-0.1063 0.10199,-0.18733 0.1813,-0.24293 0.0793,-0.0561 0.17638,-0.0836 0.2909,-0.0842 0.1101,0 0.1997,0.0292 0.26931,0.088 0.0696,0.0583 0.1192,0.14679 0.14827,0.2649 h 0.4306 c -0.0129,-0.1192 -0.0431,-0.2239 -0.0917,-0.3146 -0.0485,-0.0906 -0.11158,-0.16669 -0.18881,-0.22818 -0.0772,-0.0615 -0.1651,-0.10742 -0.26447,-0.13871 -0.0993,-0.0313 -0.2056,-0.0469 -0.31941,-0.0469 z m 1.57999,0.41769 h 0.33669 c 0.11991,0 0.2105,0.0264 0.27142,0.0798 0.0605,0.0534 0.0913,0.13381 0.0913,0.2406 0,0.2008 -0.12311,0.3012 -0.36911,0.3012 h -0.3303 z m -0.42418,1.69651 h 0.42418 v -0.69931 h 0.4112 c 0.1042,-7.1e-4 0.2002,-0.0162 0.28871,-0.0486 0.0885,-0.0318 0.1652,-0.0782 0.23089,-0.13921 0.0659,-0.061 0.11709,-0.13486 0.15332,-0.22179 0.0367,-0.0874 0.0551,-0.18619 0.0556,-0.2963 -2.7e-4,-0.12901 -0.02,-0.23629 -0.0577,-0.32268 -0.0384,-0.0863 -0.0901,-0.15491 -0.15649,-0.205 -0.0659,-0.0507 -0.1414,-0.0864 -0.2273,-0.10802 -0.0852,-0.0215 -0.17533,-0.0318 -0.27082,-0.0312 h -0.85158 z m 3.39647,0 v -0.37559 H 200.408 v -0.52772 h 0.97138 V 161.0877 H 200.408 v -0.4403 h 1.062 v -0.3756 h -1.48621 v 2.07211 z m 1.6739,-0.32702 h -0.97138 c 0.0405,-0.0437 0.0729,-0.0804 0.0977,-0.10951 0.0243,-0.0297 0.0415,-0.0523 0.0513,-0.0686 0.0339,-0.055 0.0593,-0.1149 0.0755,-0.18079 0.0167,-0.0652 0.0248,-0.13653 0.0248,-0.21421 v -0.81591 h 0.7221 z m 0.0226,0.32702 c 0.0626,0 0.11391,0.0114 0.1549,0.0346 0.041,0.0237 0.0728,0.0599 0.0961,0.1101 0.0231,0.0496 0.0388,0.11332 0.0469,0.19213 l 0.01,0.12297 h 0.32703 v -0.7868 h -0.22663 v -1.74508 h -1.57677 v 1.26591 c 0,0.0955 -0.0151,0.18348 -0.0459,0.26387 -0.0307,0.0804 -0.0772,0.15223 -0.13872,0.2153 H 201.671 v 0.7868 h 0.32371 l 0.013,-0.12297 c 0.007,-0.0788 0.0221,-0.14253 0.0443,-0.19213 0.0221,-0.0502 0.0534,-0.0864 0.0939,-0.1101 0.041,-0.0232 0.0933,-0.0346 0.15649,-0.0346 z m 1.69661,-1.59621 0.26229,0.81269 h -0.5214 z m -0.38202,1.15908 h 0.75762 l 0.14238,0.43713 h 0.45981 l -0.72852,-2.0721 h -0.48239 l -0.73829,2.07211 h 0.45011 z"

         style="fill:#656263;fill-opacity:1;fill-rule:nonzero;stroke:none;stroke-width:0.35277775"

         id="path3172" />

    </g>

  </g>

</svg>